<?xml version="1.0" encoding="utf-8"?>
<!-- Generator: Adobe Illustrator 16.0.4, SVG Export Plug-In . SVG Version: 6.00 Build 0)  -->
<!DOCTYPE svg PUBLIC "-//W3C//DTD SVG 1.1//EN" "http://www.w3.org/Graphics/SVG/1.1/DTD/svg11.dtd">
<svg version="1.1" id="レイヤー_1" xmlns="http://www.w3.org/2000/svg" xmlns:xlink="http://www.w3.org/1999/xlink" x="0px"
	 y="0px" width="1620px" height="3080px" viewBox="0 0 1620 3080" enable-background="new 0 0 1620 3080" xml:space="preserve">
<text transform="matrix(1 0 0 1 30 1905.4258)" font-family="'HelveticaNeue-Thin'" font-size="18">Horizontal</text>
<g>
	<g>
		<path d="M241.41,2131.801c0-0.994-0.806-1.801-1.8-1.801h-86.4c-0.994,0-1.8,0.807-1.8,1.801v56.398
			c0,0.994,0.806,1.801,1.8,1.801h86.4c0.994,0,1.8-0.807,1.8-1.801V2131.801z M213.811,2182.326c0,1.051-1.062,1.674-2.112,1.674
			h-4.2c-3.36,0-6.288-2.514-6.288-5.873v-8.064c0-3.359,2.928-5.863,6.288-5.863h2.112v-6.904c0-1.049,1.05-1.891,2.1-1.891
			c1.05,0,2.1,0.842,2.1,1.891V2182.326z M235.157,2158.023l-14.452,25.031c-0.35,0.607-0.985,0.945-1.638,0.945
			c-0.321,0-0.646-0.082-0.943-0.254c-0.904-0.521-1.214-1.678-0.692-2.582l14.452-25.031c0.522-0.904,1.678-1.214,2.582-0.691
			C235.369,2155.963,235.679,2157.119,235.157,2158.023z"/>
		<path d="M205.41,2170.062v8.064c0,1.26,0.828,2.273,2.088,2.273h2.112v-12.6h-2.112
			C206.238,2167.801,205.41,2168.803,205.41,2170.062z"/>
	</g>
	<g>
		<path d="M266.819,2189.167c-2.996,0-5.409-2.413-5.409-5.325v-47.684c0-2.913,2.413-5.327,5.409-5.327h10.985
			c13.648,0,22.885,9.071,22.885,22.636v13.064c0,13.566-9.237,22.636-22.885,22.636H266.819z M291.868,2153.301
			c0-8.821-5.076-14.064-13.98-14.064h-7.656v41.527h7.656c8.904,0,13.98-5.327,13.98-14.065V2153.301z"/>
		<path d="M343.542,2172.524c0,5.076-1.664,9.487-4.827,12.649c-3.162,3.161-7.573,4.826-12.649,4.826
			c-5.077,0-9.487-1.665-12.65-4.826c-3.162-3.162-4.826-7.573-4.826-12.649v-8.905c0-5.076,1.664-9.487,4.826-12.649
			c3.163-3.162,7.573-4.826,12.65-4.826c5.076,0,9.487,1.664,12.649,4.826c3.163,3.162,4.827,7.573,4.827,12.649V2172.524z
			 M334.971,2162.954c0-5.243-3.413-8.905-8.904-8.905c-5.659,0-8.905,3.246-8.905,8.905v10.318c0,5.577,3.246,8.821,8.905,8.821
			c5.658,0,8.904-3.244,8.904-8.821V2162.954z"/>
		<path d="M351.028,2162.786c0-4.825,1.581-8.985,4.577-11.982c3.079-3.079,7.24-4.66,12.066-4.66c4.078,0,7.989,0.916,11.567,2.664
			c1.581,0.748,2.414,2.246,2.414,3.827c0,2.08-1.748,3.91-4.078,3.91c-0.75,0-1.415-0.248-1.998-0.498
			c-2.413-1.082-5.16-1.998-7.906-1.998c-5.077,0-8.072,2.996-8.072,8.073v11.816c0,5.159,2.996,8.073,8.072,8.073
			c2.746,0,5.742-0.917,8.156-2.081c0.582-0.333,1.165-0.416,1.831-0.416c2.081,0,3.995,1.664,3.995,3.993
			c0,1.583-0.916,3.079-2.497,3.829c-3.579,1.748-7.407,2.663-11.484,2.663c-4.827,0-8.988-1.581-12.066-4.661
			c-2.996-2.995-4.577-7.155-4.577-12.066V2162.786z"/>
		<path d="M398.125,2171.276v14.396c0,2.413-1.914,4.327-4.244,4.327c-2.413,0-4.327-1.914-4.327-4.327v-51.346
			c0-2.413,1.914-4.327,4.327-4.327c2.33,0,4.244,1.914,4.244,4.327v26.712l14.813-13.73c0.832-0.832,1.914-1.165,2.995-1.165
			c2.247,0,4.161,1.914,4.161,4.327c0,1.165-0.499,2.247-1.415,3.079l-14.23,12.649l15.146,16.643
			c0.749,0.75,0.999,1.832,0.999,2.831c0,2.162-1.748,4.327-4.161,4.327c-1.248,0-2.497-0.499-3.328-1.499L398.125,2171.276z"/>
		<path d="M434.405,2172.107c0,3.412,0.583,5.659,1.665,7.157c1.415,1.83,3.579,2.829,6.408,2.829c3.162,0,6.158-0.915,8.987-2.163
			c0.583-0.25,1.165-0.416,1.748-0.416c2.081,0,4.078,1.747,4.078,3.911c0,1.581-0.666,2.996-2.164,3.745
			c-3.994,1.914-8.238,2.829-12.649,2.829c-4.827,0-8.988-1.581-12.067-4.661c-2.996-2.995-4.577-7.155-4.577-12.066v-10.486
			c0-4.825,1.581-8.985,4.577-11.982c3.079-3.079,7.24-4.66,12.067-4.66c4.91,0,9.07,1.581,12.066,4.66
			c2.996,2.997,4.66,7.157,4.66,11.982v3.912c0,2.995-2.414,5.409-5.409,5.409H434.405z M450.633,2164.202
			c0-6.907-2.83-10.153-8.155-10.153c-5.243,0-8.073,3.162-8.073,10.153H450.633z"/>
		<path d="M468.188,2158.543c0-7.073,5.326-12.399,12.399-12.399c2.081,0,4.161,0.25,6.242,0.666
			c1.997,0.415,3.412,2.08,3.412,4.077c0,2.248-1.665,3.995-4.078,3.995c-0.5,0-0.749,0-1.415-0.167
			c-1.332-0.332-2.83-0.666-4.161-0.666c-2.08,0-3.828,1.748-3.828,3.828v27.796c0,2.413-1.914,4.327-4.244,4.327
			c-2.414,0-4.327-1.914-4.327-4.327V2158.543z"/>
		<path d="M513.373,2164.701h-7.49v20.972c0,2.413-2.08,4.327-4.411,4.327c-2.413,0-4.411-1.914-4.411-4.327v-49.515
			c0-2.913,2.414-5.327,5.41-5.327h15.479c4.91,0,9.154,1.582,12.233,4.661c3.162,3.162,4.826,7.489,4.826,12.482
			s-1.664,9.236-4.744,12.233c-1.997,1.914-4.409,3.162-7.239,3.91l11.567,19.39c0.415,0.666,0.666,1.499,0.666,2.249
			c0,2.162-1.998,4.243-4.328,4.243c-1.498,0-2.912-0.749-3.661-2.081L513.373,2164.701z M517.95,2156.297
			c3.828,0,8.238-1.582,8.238-8.322c0-4.993-2.912-8.738-8.238-8.738h-12.067v17.061H517.95z"/>
		<path d="M576.197,2172.524c0,5.076-1.664,9.487-4.826,12.649c-3.163,3.161-7.573,4.826-12.65,4.826
			c-5.076,0-9.486-1.665-12.648-4.826c-3.162-3.162-4.827-7.573-4.827-12.649v-8.905c0-5.076,1.665-9.487,4.827-12.649
			c3.163-3.162,7.572-4.826,12.648-4.826c5.077,0,9.487,1.664,12.65,4.826c3.162,3.162,4.826,7.573,4.826,12.649V2172.524z
			 M567.627,2162.954c0-5.243-3.412-8.905-8.905-8.905c-5.659,0-8.903,3.246-8.903,8.905v10.318c0,5.577,3.245,8.821,8.903,8.821
			c5.659,0,8.905-3.244,8.905-8.821V2162.954z"/>
		<path d="M618.635,2172.524c0,5.076-1.664,9.487-4.826,12.649c-3.163,3.161-7.573,4.826-12.65,4.826s-9.486-1.665-12.648-4.826
			c-3.162-3.162-4.827-7.573-4.827-12.649v-8.905c0-5.076,1.665-9.487,4.827-12.649c3.163-3.162,7.572-4.826,12.648-4.826
			s9.487,1.664,12.65,4.826c3.162,3.162,4.826,7.573,4.826,12.649V2172.524z M610.064,2162.954c0-5.243-3.412-8.905-8.905-8.905
			c-5.659,0-8.904,3.246-8.904,8.905v10.318c0,5.577,3.245,8.821,8.904,8.821c5.659,0,8.905-3.244,8.905-8.821V2162.954z"/>
		<path d="M627.619,2134.327c0-2.413,1.915-4.327,4.327-4.327c2.331,0,4.245,1.914,4.245,4.327v12.648h8.072
			c2.413,0,4.327,1.748,4.327,4.078c0,2.496-1.831,4.161-4.327,4.161h-8.072v21.72c0,3.163,1.665,5.159,3.829,5.159
			c2.413,0,2.83-0.666,4.411-0.666c2.08,0,4.16,1.498,4.16,3.994c0,2.082-1.581,3.663-3.661,4.079
			c-1.665,0.332-3.246,0.499-4.91,0.499c-6.825,0-12.4-5.326-12.4-12.981V2134.327z"/>
	</g>
</g>
<text transform="matrix(1 0 0 1 850 1905.4258)" font-family="'HelveticaNeue-Thin'" font-size="18">Vertical</text>
<g>
	<g>
		<path d="M1370,2032.755c0-3.312-2.688-6-6-6h-288c-3.312,0-6,2.688-6,6v188c0,3.312,2.688,6,6,6h288c3.312,0,6-2.688,6-6V2032.755
			z M1278,2201.177c0,3.5-3.539,5.578-7.039,5.578h-14c-11.201,0-20.961-8.379-20.961-19.578v-26.879
			c0-11.199,9.76-19.543,20.961-19.543H1264v-23.016c0-3.5,3.5-6.301,7-6.301s7,2.801,7,6.301V2201.177z M1349.156,2120.165
			l-48.176,83.438c-1.166,2.023-3.285,3.152-5.461,3.152c-1.07,0-2.152-0.273-3.145-0.844c-3.012-1.742-4.045-5.594-2.305-8.609
			l48.172-83.438c1.742-3.012,5.596-4.045,8.607-2.305C1349.863,2113.298,1350.895,2117.151,1349.156,2120.165z"/>
		<path d="M1250,2160.298v26.879c0,4.199,2.76,7.578,6.961,7.578H1264v-42h-7.039C1252.76,2152.755,1250,2156.099,1250,2160.298z"/>
	</g>
	<g>
		<path d="M1074.191,2292.6c-2.321,0-4.191-1.87-4.191-4.126v-36.947c0-2.257,1.87-4.128,4.191-4.128h8.512
			c10.574,0,17.731,7.029,17.731,17.539v10.123c0,10.512-7.157,17.539-17.731,17.539H1074.191z M1093.6,2264.81
			c0-6.835-3.933-10.897-10.832-10.897h-5.933v32.177h5.933c6.899,0,10.832-4.128,10.832-10.898V2264.81z"/>
		<path d="M1133.639,2279.704c0,3.934-1.289,7.352-3.74,9.802c-2.45,2.449-5.867,3.739-9.801,3.739c-3.933,0-7.351-1.29-9.802-3.739
			c-2.45-2.45-3.739-5.868-3.739-9.802v-6.899c0-3.934,1.289-7.352,3.739-9.802c2.451-2.45,5.869-3.739,9.802-3.739
			c3.934,0,7.351,1.289,9.801,3.739c2.451,2.45,3.74,5.868,3.74,9.802V2279.704z M1126.997,2272.289c0-4.062-2.644-6.9-6.899-6.9
			c-4.385,0-6.899,2.516-6.899,6.9v7.995c0,4.321,2.515,6.835,6.899,6.835s6.899-2.514,6.899-6.835V2272.289z"/>
		<path d="M1139.438,2272.159c0-3.739,1.226-6.963,3.547-9.285c2.386-2.386,5.609-3.61,9.35-3.61c3.159,0,6.189,0.71,8.962,2.064
			c1.227,0.579,1.871,1.74,1.871,2.965c0,1.612-1.354,3.03-3.16,3.03c-0.58,0-1.096-0.192-1.547-0.387
			c-1.87-0.838-3.998-1.548-6.126-1.548c-3.934,0-6.255,2.321-6.255,6.256v9.155c0,3.998,2.321,6.256,6.255,6.256
			c2.128,0,4.448-0.711,6.319-1.612c0.451-0.259,0.902-0.322,1.419-0.322c1.611,0,3.095,1.289,3.095,3.094
			c0,1.227-0.71,2.386-1.935,2.967c-2.772,1.354-5.739,2.063-8.898,2.063c-3.74,0-6.964-1.226-9.35-3.611
			c-2.321-2.321-3.547-5.545-3.547-9.35V2272.159z"/>
		<path d="M1175.932,2278.737v11.155c0,1.869-1.483,3.353-3.289,3.353c-1.869,0-3.353-1.483-3.353-3.353v-39.785
			c0-1.869,1.483-3.353,3.353-3.353c1.806,0,3.289,1.483,3.289,3.353v20.697l11.478-10.639c0.644-0.645,1.482-0.902,2.321-0.902
			c1.74,0,3.224,1.483,3.224,3.353c0,0.903-0.387,1.741-1.097,2.386l-11.025,9.802l11.735,12.895c0.58,0.581,0.773,1.42,0.773,2.194
			c0,1.675-1.354,3.353-3.224,3.353c-0.967,0-1.935-0.387-2.578-1.161L1175.932,2278.737z"/>
		<path d="M1204.042,2279.381c0,2.645,0.452,4.386,1.29,5.546c1.097,1.418,2.773,2.192,4.965,2.192c2.45,0,4.771-0.709,6.964-1.676
			c0.451-0.194,0.902-0.322,1.354-0.322c1.611,0,3.159,1.354,3.159,3.03c0,1.225-0.516,2.321-1.676,2.901
			c-3.095,1.483-6.384,2.192-9.802,2.192c-3.74,0-6.964-1.226-9.35-3.611c-2.322-2.321-3.546-5.545-3.546-9.35v-8.125
			c0-3.739,1.224-6.963,3.546-9.285c2.386-2.386,5.609-3.61,9.35-3.61c3.805,0,7.028,1.225,9.35,3.61
			c2.321,2.322,3.611,5.546,3.611,9.285v3.031c0,2.32-1.87,4.19-4.191,4.19H1204.042z M1216.616,2273.256
			c0-5.352-2.193-7.867-6.319-7.867c-4.062,0-6.255,2.45-6.255,7.867H1216.616z"/>
		<path d="M1230.219,2268.871c0-5.48,4.127-9.607,9.607-9.607c1.612,0,3.225,0.193,4.837,0.516c1.547,0.322,2.643,1.612,2.643,3.159
			c0,1.742-1.29,3.096-3.159,3.096c-0.387,0-0.58,0-1.096-0.129c-1.032-0.258-2.192-0.517-3.225-0.517
			c-1.611,0-2.966,1.354-2.966,2.967v21.537c0,1.869-1.483,3.353-3.289,3.353c-1.87,0-3.353-1.483-3.353-3.353V2268.871z"/>
		<path d="M1265.229,2273.643h-5.804v16.25c0,1.869-1.611,3.353-3.417,3.353c-1.871,0-3.418-1.483-3.418-3.353v-38.366
			c0-2.257,1.87-4.128,4.191-4.128h11.994c3.804,0,7.093,1.227,9.479,3.612c2.45,2.45,3.739,5.803,3.739,9.672
			c0,3.868-1.289,7.156-3.676,9.479c-1.547,1.483-3.416,2.45-5.608,3.029l8.962,15.024c0.322,0.516,0.516,1.161,0.516,1.742
			c0,1.676-1.548,3.288-3.354,3.288c-1.16,0-2.256-0.58-2.836-1.612L1265.229,2273.643z M1268.776,2267.131
			c2.966,0,6.382-1.226,6.382-6.448c0-3.869-2.256-6.771-6.382-6.771h-9.351v13.219H1268.776z"/>
		<path d="M1313.908,2279.704c0,3.934-1.29,7.352-3.74,9.802c-2.45,2.449-5.867,3.739-9.801,3.739s-7.35-1.29-9.801-3.739
			c-2.45-2.45-3.74-5.868-3.74-9.802v-6.899c0-3.934,1.29-7.352,3.74-9.802c2.451-2.45,5.867-3.739,9.801-3.739
			s7.351,1.289,9.801,3.739s3.74,5.868,3.74,9.802V2279.704z M1307.268,2272.289c0-4.062-2.645-6.9-6.9-6.9
			c-4.385,0-6.898,2.516-6.898,6.9v7.995c0,4.321,2.514,6.835,6.898,6.835s6.9-2.514,6.9-6.835V2272.289z"/>
		<path d="M1346.79,2279.704c0,3.934-1.29,7.352-3.739,9.802c-2.45,2.449-5.868,3.739-9.802,3.739s-7.35-1.29-9.801-3.739
			c-2.45-2.45-3.74-5.868-3.74-9.802v-6.899c0-3.934,1.29-7.352,3.74-9.802c2.451-2.45,5.867-3.739,9.801-3.739
			s7.352,1.289,9.802,3.739c2.449,2.45,3.739,5.868,3.739,9.802V2279.704z M1340.149,2272.289c0-4.062-2.644-6.9-6.9-6.9
			c-4.385,0-6.898,2.516-6.898,6.9v7.995c0,4.321,2.514,6.835,6.898,6.835s6.9-2.514,6.9-6.835V2272.289z"/>
		<path d="M1353.751,2250.107c0-1.869,1.483-3.353,3.353-3.353c1.806,0,3.289,1.483,3.289,3.353v9.801h6.255
			c1.869,0,3.353,1.354,3.353,3.16c0,1.934-1.418,3.224-3.353,3.224h-6.255v16.829c0,2.451,1.29,3.998,2.967,3.998
			c1.869,0,2.192-0.517,3.417-0.517c1.612,0,3.224,1.161,3.224,3.095c0,1.613-1.225,2.839-2.837,3.161
			c-1.29,0.257-2.515,0.387-3.804,0.387c-5.288,0-9.608-4.127-9.608-10.059V2250.107z"/>
	</g>
</g>
<text transform="matrix(1 0 0 1 30 1285.4258)" font-family="'HelveticaNeue-Thin'" font-size="18">Horizontal</text>
<text transform="matrix(1 0 0 1 850 1285.4258)" font-family="'HelveticaNeue-Thin'" font-size="18">Vertical</text>
<text transform="matrix(1 0 0 1 30 665.4258)" font-family="'HelveticaNeue-Thin'" font-size="18">Horizontal</text>
<g>
	<g>
		<path d="M214.398,891.801c0-0.994-0.806-1.801-1.8-1.801h-86.4c-0.994,0-1.8,0.807-1.8,1.801v56.398
			c0,0.994,0.806,1.801,1.8,1.801h86.4c0.994,0,1.8-0.807,1.8-1.801V891.801z M186.799,942.326c0,1.051-1.062,1.674-2.112,1.674
			h-4.2c-3.36,0-6.288-2.514-6.288-5.873v-8.064c0-3.359,2.928-5.863,6.288-5.863h2.112v-6.904c0-1.049,1.05-1.891,2.1-1.891
			c1.05,0,2.1,0.842,2.1,1.891V942.326z M208.145,918.023l-14.452,25.031c-0.35,0.607-0.985,0.945-1.638,0.945
			c-0.321,0-0.646-0.082-0.943-0.254c-0.904-0.521-1.214-1.678-0.692-2.582l14.452-25.031c0.522-0.904,1.678-1.214,2.582-0.691
			C208.357,915.963,208.667,917.119,208.145,918.023z"/>
		<path d="M178.398,930.062v8.064c0,1.26,0.828,2.273,2.088,2.273h2.112v-12.6h-2.112
			C179.227,927.801,178.398,928.803,178.398,930.062z"/>
	</g>
	<g>
		<path d="M234.398,949.058v-2.983c0.89-0.523,1.885-0.982,2.984-1.375c1.1-0.393,2.25-0.693,3.456-0.904v-44.449
			c-1.206-0.262-2.37-0.59-3.495-0.982c-1.127-0.393-2.109-0.824-2.946-1.295v-2.984h9.11c0.89,0,1.989-0.026,3.298-0.079
			c1.309-0.051,2.67-0.118,4.084-0.196c1.414-0.078,2.789-0.156,4.123-0.236c1.335-0.078,2.474-0.117,3.417-0.117
			c4.555,0,8.624,0.603,12.211,1.807c3.585,1.205,6.623,2.959,9.11,5.262c2.486,2.305,4.397,5.158,5.733,8.561
			c1.335,3.403,2.003,7.33,2.003,11.779c0,4.347-0.628,8.3-1.885,11.859c-1.257,3.561-3.141,6.597-5.654,9.11
			c-2.514,2.513-5.694,4.464-9.542,5.851c-3.849,1.387-8.364,2.081-13.547,2.081c-0.681,0-1.598-0.04-2.749-0.118
			c-1.152-0.078-2.383-0.156-3.691-0.234c-1.31-0.079-2.618-0.158-3.927-0.236c-1.309-0.078-2.461-0.118-3.456-0.118H234.398z
			 M257.409,898.561c-0.942,0-1.885,0.025-2.828,0.078c-0.942,0.053-1.754,0.131-2.435,0.236v45.471
			c0.209,0.053,0.576,0.092,1.1,0.118c0.522,0.026,1.06,0.053,1.609,0.078c0.55,0.026,1.085,0.053,1.61,0.079
			c0.522,0.026,0.915,0.038,1.178,0.038c3.036,0,5.615-0.627,7.736-1.884c2.12-1.258,3.86-2.957,5.222-5.105
			c1.36-2.146,2.356-4.658,2.985-7.539c0.627-2.879,0.941-5.941,0.941-9.188c0-2.878-0.327-5.655-0.982-8.325
			c-0.655-2.669-1.662-5.051-3.022-7.146c-1.363-2.093-3.129-3.77-5.302-5.025C263.05,899.188,260.445,898.561,257.409,898.561z"/>
		<path d="M293.063,929.424c0-3.192,0.484-6.059,1.453-8.599c0.969-2.539,2.356-4.699,4.162-6.479
			c1.807-1.779,3.992-3.141,6.558-4.084c2.564-0.942,5.471-1.414,8.717-1.414c3.664,0,6.82,0.512,9.464,1.531
			c2.643,1.021,4.815,2.436,6.518,4.242c1.701,1.807,2.945,3.979,3.731,6.518c0.784,2.541,1.178,5.302,1.178,8.285
			c0,3.195-0.472,6.061-1.414,8.6c-0.942,2.541-2.317,4.7-4.124,6.479c-1.807,1.78-4.005,3.142-6.597,4.084
			c-2.591,0.942-5.51,1.413-8.757,1.413c-3.561,0-6.649-0.51-9.267-1.531c-2.618-1.021-4.791-2.435-6.519-4.24
			c-1.728-1.807-3.011-3.979-3.848-6.519C293.482,935.171,293.063,932.408,293.063,929.424z M305.236,929.424
			c0,2.356,0.144,4.516,0.432,6.479c0.287,1.964,0.797,3.626,1.531,4.987c0.732,1.361,1.728,2.422,2.984,3.181
			c1.257,0.759,2.88,1.139,4.869,1.139c1.151,0,2.2-0.274,3.141-0.825c0.943-0.549,1.754-1.439,2.436-2.67
			c0.679-1.229,1.19-2.854,1.531-4.869c0.34-2.016,0.51-4.488,0.51-7.422c0-2.406-0.145-4.58-0.432-6.518
			c-0.288-1.938-0.786-3.586-1.492-4.949c-0.707-1.359-1.663-2.42-2.866-3.18c-1.205-0.758-2.723-1.139-4.555-1.139
			c-1.362,0-2.54,0.275-3.534,0.824c-0.995,0.551-1.833,1.441-2.513,2.671c-0.681,1.23-1.192,2.854-1.532,4.868
			C305.405,924.02,305.236,926.493,305.236,929.424z"/>
		<path d="M373.09,942.697c-0.367,1.047-0.97,2.002-1.807,2.865c-0.837,0.865-1.845,1.637-3.023,2.317
			c-1.177,0.681-2.512,1.203-4.005,1.57c-1.493,0.366-3.051,0.55-4.672,0.55c-3.457,0-6.428-0.484-8.915-1.452
			c-2.487-0.968-4.542-2.356-6.165-4.163c-1.623-1.807-2.827-3.979-3.612-6.518c-0.786-2.539-1.178-5.354-1.178-8.443
			c0-6.648,1.818-11.74,5.458-15.274c3.639-3.534,8.809-5.302,15.51-5.302c2.565,0,4.921,0.275,7.069,0.825
			c2.146,0.55,3.926,1.192,5.34,1.924c-0.105,0.891-0.25,1.872-0.432,2.945c-0.184,1.073-0.393,2.147-0.628,3.22
			c-0.235,1.074-0.51,2.121-0.824,3.142s-0.629,1.872-0.942,2.552h-3.849l-3.298-9.345c-0.367-0.263-0.76-0.458-1.178-0.589
			c-0.419-0.131-1.047-0.196-1.885-0.196c-1.361,0-2.54,0.248-3.534,0.745c-0.995,0.499-1.845,1.349-2.552,2.553
			c-0.707,1.205-1.231,2.802-1.571,4.791c-0.341,1.99-0.51,4.451-0.51,7.381c0,2.148,0.235,4.124,0.707,5.931
			c0.471,1.807,1.19,3.378,2.16,4.712c0.968,1.335,2.185,2.383,3.652,3.141c1.465,0.76,3.193,1.14,5.184,1.14
			c1.832,0,3.428-0.262,4.791-0.786c1.361-0.521,2.513-1.15,3.456-1.885L373.09,942.697z"/>
		<path d="M400.576,909.791h18.377v2.983c-0.995,0.423-1.924,0.79-2.788,1.108c-0.864,0.316-1.82,0.578-2.866,0.788
			c-0.786,1.054-1.637,2.095-2.553,3.122c-0.917,1.026-1.833,2.015-2.749,2.961c-0.917,0.949-1.793,1.858-2.63,2.728
			c-0.838,0.868-1.597,1.646-2.277,2.331c0.786,1.051,1.701,2.312,2.749,3.783c1.047,1.473,2.172,3.037,3.377,4.691
			c1.203,1.656,2.474,3.338,3.809,5.046c1.335,1.708,2.682,3.323,4.044,4.849l4.005,1.893v2.983h-13.272l-2.121-1.885
			c-1.205-1.622-2.265-3.141-3.18-4.555c-0.917-1.414-1.742-2.774-2.474-4.083c-0.734-1.309-1.44-2.579-2.121-3.81
			c-0.681-1.229-1.361-2.446-2.042-3.651l-2.591-0.786v13.892c0.889,0.157,1.7,0.395,2.435,0.71c0.732,0.316,1.518,0.71,2.355,1.185
			v2.983h-21.282v-2.983c1.728-0.84,3.456-1.471,5.183-1.893v-47.739l-5.969-0.63v-2.984c0.733-0.315,1.728-0.629,2.984-0.943
			c1.257-0.314,2.591-0.59,4.006-0.824c1.414-0.236,2.8-0.444,4.162-0.629c1.361-0.182,2.513-0.326,3.456-0.432h2.67v36.833h2.041
			c1.728-1.844,3.338-3.87,4.83-6.083c1.493-2.209,2.814-4.236,3.966-6.079c-0.681-0.211-1.296-0.474-1.846-0.79
			c-0.549-0.316-1.113-0.684-1.688-1.106V909.791z"/>
		<path d="M459.241,942.461c-0.42,0.891-1.087,1.794-2.002,2.709c-0.917,0.918-2.042,1.729-3.377,2.436
			c-1.335,0.707-2.88,1.283-4.634,1.728c-1.755,0.444-3.651,0.667-5.694,0.667c-3.247,0-6.125-0.484-8.638-1.452
			s-4.608-2.356-6.282-4.163c-1.676-1.807-2.946-3.966-3.81-6.479c-0.864-2.514-1.295-5.341-1.295-8.482
			c0-6.701,1.753-11.806,5.261-15.313c3.507-3.507,8.376-5.263,14.608-5.263c2.67,0,5.169,0.367,7.5,1.101
			c2.329,0.733,4.266,1.937,5.811,3.612c1.544,1.676,2.618,3.875,3.22,6.597c0.602,2.723,0.562,6.048-0.118,9.974h-24.11
			c0.052,4.137,1.111,7.436,3.181,9.896c2.068,2.462,5.117,3.691,9.149,3.691c1.728,0,3.521-0.262,5.38-0.786
			c1.858-0.521,3.311-1.203,4.359-2.041L459.241,942.461z M443.019,913.325c-1.04,0-1.965,0.183-2.771,0.55
			c-0.807,0.367-1.509,1.033-2.108,2.002c-0.598,0.97-1.079,2.277-1.443,3.927c-0.365,1.649-0.625,3.73-0.78,6.243h12.565
			c0.366-4.083,0.133-7.225-0.7-9.424C446.947,914.424,445.36,913.325,443.019,913.325z"/>
		<path d="M486.021,918.822c-0.628,0.315-1.362,0.841-2.199,1.575c-0.838,0.735-1.598,1.942-2.277,3.622v20.164
			c1.047,0.105,2.093,0.303,3.141,0.59c1.047,0.29,2.094,0.725,3.142,1.301v2.983h-22.775v-2.983c0.942-0.525,1.832-0.92,2.67-1.184
			c0.837-0.262,1.675-0.5,2.514-0.711v-28.889l-5.184-0.632v-2.983c0.836-0.366,1.871-0.707,3.102-1.021
			c1.229-0.314,2.5-0.589,3.809-0.824c1.309-0.236,2.578-0.432,3.809-0.59c1.23-0.156,2.264-0.287,3.102-0.393h2.67v10.445h0.314
			c0.419-1.15,1.033-2.355,1.846-3.612c0.811-1.257,1.767-2.407,2.866-3.455c1.1-1.047,2.304-1.886,3.612-2.513
			c1.308-0.629,2.67-0.916,4.084-0.865c0.576,0.734,1.073,1.768,1.493,3.104c0.418,1.334,0.758,2.604,1.021,3.809v3.062H486.021z"/>
		<path d="M516.885,943.813c1.204,0.26,2.277,0.599,3.22,1.013c0.942,0.417,1.858,0.832,2.748,1.248v2.983h-24.188v-2.983
			c1.151-0.629,2.251-1.111,3.298-1.453c1.047-0.34,2.094-0.615,3.142-0.826v-44.449c-2.619-0.576-4.765-1.335-6.44-2.277v-2.984
			h8.325c1.047,0,2.238-0.026,3.574-0.079c1.334-0.051,2.735-0.118,4.202-0.196c1.465-0.078,2.957-0.156,4.477-0.236
			c1.518-0.078,2.984-0.117,4.397-0.117c2.879,0,5.538,0.329,7.971,0.987c2.435,0.657,4.529,1.645,6.283,2.96
			c1.754,1.314,3.115,2.959,4.084,4.932c0.968,1.975,1.453,4.275,1.453,6.906c0,3.789-0.917,6.894-2.749,9.312
			c-1.833,2.42-4.347,4.234-7.54,5.445c2.094,3.275,4.319,6.619,6.675,10.025c2.356,3.406,4.842,6.696,7.461,9.868l3.77,2.496v2.67
			h-13.115l-3.377-2.573c-2.409-2.861-4.542-6.178-6.4-9.947c-1.859-3.771-3.495-7.477-4.909-11.117h-6.361V943.813z
			 M520.834,898.561c-1.632,0-2.949,0.156-3.949,0.472v21.91h4.659c2.685,0,4.975-0.955,6.87-2.866
			c1.894-1.91,2.842-4.751,2.842-8.521c0-1.937-0.263-3.6-0.79-4.988c-0.526-1.386-1.264-2.524-2.211-3.415
			c-0.948-0.891-2.054-1.545-3.317-1.964S522.306,898.561,520.834,898.561z"/>
		<path d="M554.267,929.424c0-3.192,0.483-6.059,1.453-8.599c0.969-2.539,2.356-4.699,4.162-6.479
			c1.807-1.779,3.992-3.141,6.558-4.084c2.565-0.942,5.47-1.414,8.718-1.414c3.664,0,6.818,0.512,9.463,1.531
			c2.643,1.021,4.816,2.436,6.519,4.242c1.701,1.807,2.944,3.979,3.73,6.518c0.785,2.541,1.177,5.302,1.177,8.285
			c0,3.195-0.471,6.061-1.413,8.6c-0.943,2.541-2.317,4.7-4.124,6.479c-1.806,1.78-4.005,3.142-6.597,4.084
			c-2.592,0.942-5.511,1.413-8.756,1.413c-3.562,0-6.65-0.51-9.267-1.531c-2.619-1.021-4.791-2.435-6.519-4.24
			c-1.728-1.807-3.011-3.979-3.849-6.519C554.685,935.171,554.267,932.408,554.267,929.424z M566.439,929.424
			c0,2.356,0.144,4.516,0.432,6.479c0.287,1.964,0.798,3.626,1.531,4.987s1.728,2.422,2.985,3.181
			c1.256,0.759,2.878,1.139,4.869,1.139c1.151,0,2.199-0.274,3.141-0.825c0.943-0.549,1.753-1.439,2.435-2.67
			c0.681-1.229,1.19-2.854,1.531-4.869c0.34-2.016,0.511-4.488,0.511-7.422c0-2.406-0.145-4.58-0.433-6.518
			s-0.786-3.586-1.492-4.949c-0.707-1.359-1.663-2.42-2.867-3.18c-1.204-0.758-2.722-1.139-4.554-1.139
			c-1.362,0-2.541,0.275-3.535,0.824c-0.995,0.551-1.833,1.441-2.513,2.671c-0.681,1.23-1.191,2.854-1.531,4.868
			C566.609,924.02,566.439,926.493,566.439,929.424z"/>
		<path d="M600.916,929.424c0-3.192,0.483-6.059,1.452-8.599c0.969-2.539,2.356-4.699,4.162-6.479
			c1.807-1.779,3.992-3.141,6.559-4.084c2.564-0.942,5.47-1.414,8.716-1.414c3.665,0,6.82,0.512,9.464,1.531
			c2.643,1.021,4.817,2.436,6.519,4.242c1.701,1.807,2.945,3.979,3.731,6.518c0.785,2.541,1.178,5.302,1.178,8.285
			c0,3.195-0.471,6.061-1.413,8.6c-0.943,2.541-2.317,4.7-4.124,6.479c-1.806,1.78-4.005,3.142-6.597,4.084
			c-2.592,0.942-5.511,1.413-8.757,1.413c-3.561,0-6.649-0.51-9.266-1.531c-2.619-1.021-4.791-2.435-6.519-4.24
			c-1.728-1.807-3.011-3.979-3.849-6.519C601.334,935.171,600.916,932.408,600.916,929.424z M613.089,929.424
			c0,2.356,0.143,4.516,0.431,6.479c0.287,1.964,0.797,3.626,1.532,4.987c0.733,1.361,1.728,2.422,2.985,3.181
			c1.256,0.759,2.879,1.139,4.869,1.139c1.151,0,2.199-0.274,3.141-0.825c0.943-0.549,1.753-1.439,2.435-2.67
			c0.68-1.229,1.19-2.854,1.532-4.869c0.34-2.016,0.51-4.488,0.51-7.422c0-2.406-0.145-4.58-0.433-6.518
			c-0.288-1.938-0.785-3.586-1.492-4.949c-0.707-1.359-1.663-2.42-2.866-3.18c-1.205-0.758-2.723-1.139-4.555-1.139
			c-1.362,0-2.54,0.275-3.534,0.824c-0.996,0.551-1.833,1.441-2.513,2.671c-0.681,1.23-1.192,2.854-1.531,4.868
			C613.258,924.02,613.089,926.493,613.089,929.424z"/>
		<path d="M645.759,911.749c1.988-1.291,4.083-2.205,6.282-2.743v-6.361c0.418-0.314,1.453-0.772,3.103-1.375
			c1.648-0.602,3.494-1.086,5.536-1.453h2.67v9.975h10.367v5.104H663.35v20.229c0,3.23,0.405,5.469,1.218,6.719
			c0.811,1.25,2.159,1.874,4.045,1.874c0.942,0,2.002-0.065,3.18-0.196c1.177-0.131,2.264-0.38,3.259-0.746l0.55,2.592
			c-0.471,0.471-1.166,0.969-2.082,1.492c-0.917,0.523-1.963,1.021-3.141,1.491c-1.179,0.472-2.462,0.864-3.848,1.179
			c-1.388,0.313-2.842,0.471-4.359,0.471c-3.403,0-5.942-0.887-7.617-2.657c-1.677-1.772-2.514-4.64-2.514-8.601v-23.847h-6.282
			V911.749z"/>
	</g>
</g>
<text transform="matrix(1 0 0 1 850 665.4258)" font-family="'HelveticaNeue-Thin'" font-size="18">Vertical</text>
<g>
	<g>
		<path d="M1370,795.602c0-3.312-2.688-6-6-6h-288c-3.312,0-6,2.688-6,6v188c0,3.312,2.688,6,6,6h288c3.312,0,6-2.688,6-6V795.602z
			 M1278,964.023c0,3.5-3.539,5.578-7.039,5.578h-14c-11.201,0-20.961-8.379-20.961-19.578v-26.879
			c0-11.199,9.76-19.543,20.961-19.543H1264v-23.016c0-3.5,3.5-6.301,7-6.301s7,2.801,7,6.301V964.023z M1349.156,883.012
			l-48.176,83.438c-1.166,2.023-3.285,3.152-5.461,3.152c-1.07,0-2.152-0.273-3.145-0.844c-3.012-1.742-4.045-5.594-2.305-8.609
			l48.172-83.438c1.742-3.012,5.596-4.045,8.607-2.305C1349.863,876.145,1350.895,879.998,1349.156,883.012z"/>
		<path d="M1250,923.145v26.879c0,4.199,2.76,7.578,6.961,7.578H1264v-42h-7.039C1252.76,915.602,1250,918.945,1250,923.145z"/>
	</g>
	<g>
		<path d="M1070,1049.758v-2.028c0.604-0.356,1.281-0.668,2.029-0.935c0.748-0.268,1.53-0.472,2.35-0.615v-30.224
			c-0.819-0.178-1.611-0.401-2.376-0.668c-0.767-0.267-1.434-0.561-2.003-0.881v-2.029h6.194c0.605,0,1.353-0.018,2.243-0.054
			c0.89-0.034,1.815-0.08,2.776-0.133c0.962-0.054,1.896-0.106,2.804-0.161c0.907-0.053,1.683-0.08,2.323-0.08
			c3.097,0,5.864,0.41,8.304,1.229c2.438,0.819,4.503,2.013,6.194,3.578c1.69,1.567,2.989,3.507,3.897,5.82
			c0.908,2.314,1.362,4.984,1.362,8.01c0,2.956-0.428,5.644-1.282,8.063c-0.854,2.422-2.136,4.486-3.844,6.195
			c-1.709,1.708-3.873,3.035-6.489,3.979c-2.616,0.942-5.687,1.414-9.211,1.414c-0.463,0-1.086-0.026-1.868-0.08
			c-0.784-0.053-1.621-0.106-2.511-0.159c-0.891-0.054-1.78-0.107-2.67-0.161c-0.891-0.053-1.674-0.08-2.35-0.08H1070z
			 M1085.646,1015.422c-0.641,0-1.281,0.018-1.923,0.054c-0.641,0.035-1.192,0.089-1.655,0.16v30.918
			c0.143,0.036,0.392,0.062,0.748,0.081c0.355,0.018,0.721,0.035,1.094,0.053c0.374,0.018,0.738,0.036,1.096,0.054
			c0.354,0.019,0.622,0.026,0.801,0.026c2.064,0,3.818-0.427,5.26-1.281c1.441-0.855,2.625-2.011,3.552-3.472
			c0.924-1.459,1.602-3.167,2.029-5.126c0.426-1.958,0.64-4.04,0.64-6.248c0-1.957-0.223-3.845-0.668-5.66
			c-0.444-1.815-1.13-3.435-2.055-4.859c-0.927-1.424-2.128-2.563-3.605-3.418
			C1089.482,1015.849,1087.711,1015.422,1085.646,1015.422z"/>
		<path d="M1109.89,1036.408c0-2.171,0.329-4.12,0.987-5.847c0.659-1.727,1.604-3.195,2.83-4.406c1.229-1.21,2.715-2.136,4.46-2.777
			c1.743-0.641,3.72-0.961,5.927-0.961c2.491,0,4.638,0.348,6.436,1.041c1.797,0.694,3.274,1.656,4.432,2.885
			c1.156,1.229,2.003,2.705,2.537,4.432c0.533,1.728,0.801,3.604,0.801,5.634c0,2.172-0.32,4.12-0.961,5.847
			c-0.641,1.729-1.576,3.196-2.805,4.406c-1.228,1.21-2.722,2.136-4.485,2.776c-1.762,0.642-3.747,0.961-5.954,0.961
			c-2.421,0-4.521-0.347-6.301-1.041c-1.78-0.694-3.257-1.655-4.433-2.883c-1.175-1.229-2.047-2.705-2.616-4.433
			C1110.175,1040.315,1109.89,1038.438,1109.89,1036.408z M1118.167,1036.408c0,1.602,0.098,3.07,0.293,4.405
			s0.542,2.466,1.042,3.392c0.498,0.926,1.175,1.646,2.029,2.162c0.854,0.517,1.958,0.774,3.311,0.774
			c0.782,0,1.495-0.187,2.136-0.561s1.192-0.979,1.655-1.815s0.81-1.94,1.042-3.312c0.23-1.37,0.347-3.052,0.347-5.046
			c0-1.637-0.099-3.114-0.294-4.432s-0.534-2.438-1.015-3.365c-0.48-0.925-1.13-1.646-1.948-2.162
			c-0.819-0.516-1.852-0.774-3.098-0.774c-0.927,0-1.728,0.187-2.403,0.561c-0.677,0.374-1.246,0.979-1.708,1.815
			c-0.463,0.837-0.812,1.94-1.042,3.311C1118.281,1032.733,1118.167,1034.415,1118.167,1036.408z"/>
		<path d="M1164.305,1045.434c-0.25,0.711-0.659,1.361-1.229,1.948c-0.57,0.588-1.255,1.112-2.056,1.575s-1.709,0.818-2.724,1.068
			c-1.016,0.248-2.075,0.373-3.177,0.373c-2.351,0-4.371-0.329-6.062-0.987c-1.691-0.658-3.089-1.603-4.192-2.83
			c-1.104-1.229-1.922-2.706-2.456-4.433c-0.534-1.726-0.801-3.64-0.801-5.74c0-4.521,1.236-7.983,3.711-10.387
			c2.474-2.402,5.989-3.604,10.547-3.604c1.744,0,3.346,0.188,4.807,0.561c1.459,0.374,2.669,0.812,3.631,1.309
			c-0.072,0.605-0.17,1.272-0.294,2.003c-0.125,0.729-0.267,1.46-0.428,2.189c-0.16,0.73-0.347,1.441-0.561,2.136
			s-0.427,1.272-0.641,1.735h-2.616l-2.243-6.354c-0.25-0.179-0.517-0.312-0.801-0.4c-0.286-0.089-0.712-0.134-1.282-0.134
			c-0.926,0-1.727,0.169-2.402,0.507c-0.677,0.34-1.255,0.917-1.735,1.736c-0.481,0.819-0.838,1.905-1.068,3.258
			c-0.232,1.353-0.347,3.026-0.347,5.019c0,1.461,0.16,2.804,0.479,4.032c0.32,1.229,0.81,2.297,1.47,3.204
			c0.658,0.907,1.485,1.62,2.483,2.136c0.995,0.517,2.17,0.774,3.524,0.774c1.245,0,2.33-0.178,3.257-0.534
			c0.926-0.354,1.708-0.782,2.35-1.282L1164.305,1045.434z"/>
		<path d="M1182.994,1023.059h12.495v2.028c-0.676,0.287-1.308,0.537-1.895,0.754c-0.589,0.215-1.238,0.393-1.95,0.535
			c-0.533,0.717-1.112,1.425-1.735,2.123c-0.624,0.698-1.246,1.37-1.869,2.014c-0.624,0.646-1.22,1.264-1.788,1.854
			c-0.57,0.591-1.087,1.119-1.549,1.585c0.534,0.715,1.156,1.572,1.869,2.572c0.711,1.002,1.477,2.065,2.296,3.19
			c0.817,1.126,1.683,2.27,2.59,3.431c0.908,1.161,1.823,2.26,2.75,3.297l2.724,1.287v2.028h-9.024l-1.442-1.281
			c-0.818-1.104-1.54-2.136-2.163-3.098c-0.622-0.961-1.184-1.886-1.681-2.775c-0.5-0.891-0.98-1.754-1.442-2.591
			c-0.464-0.836-0.926-1.663-1.39-2.482l-1.761-0.535v9.446c0.604,0.106,1.155,0.268,1.655,0.482
			c0.498,0.215,1.031,0.482,1.602,0.806v2.028h-14.471v-2.028c1.174-0.571,2.35-1,3.524-1.287v-32.461l-4.059-0.428v-2.029
			c0.498-0.215,1.175-0.428,2.028-0.642c0.855-0.214,1.762-0.401,2.724-0.561c0.962-0.16,1.904-0.302,2.83-0.428
			c0.926-0.123,1.709-0.222,2.35-0.293h1.816v25.045h1.388c1.175-1.254,2.27-2.632,3.284-4.137c1.015-1.502,1.914-2.88,2.697-4.134
			c-0.463-0.143-0.882-0.321-1.256-0.537c-0.373-0.215-0.757-0.465-1.147-0.752V1023.059z"/>
		<path d="M1222.884,1045.272c-0.285,0.605-0.739,1.22-1.362,1.842c-0.622,0.624-1.388,1.176-2.296,1.656
			c-0.907,0.48-1.959,0.873-3.15,1.175c-1.193,0.302-2.483,0.453-3.872,0.453c-2.207,0-4.165-0.329-5.873-0.987
			c-1.709-0.658-3.134-1.603-4.271-2.83c-1.14-1.229-2.003-2.697-2.591-4.405c-0.588-1.709-0.881-3.632-0.881-5.768
			c0-4.557,1.192-8.027,3.577-10.413c2.386-2.385,5.696-3.578,9.933-3.578c1.815,0,3.516,0.25,5.1,0.748
			c1.585,0.499,2.901,1.317,3.952,2.456c1.05,1.14,1.78,2.635,2.188,4.485c0.409,1.852,0.383,4.112-0.079,6.782h-16.395
			c0.035,2.812,0.756,5.056,2.163,6.729c1.406,1.674,3.479,2.51,6.221,2.51c1.175,0,2.395-0.178,3.658-0.534
			c1.264-0.354,2.251-0.818,2.964-1.388L1222.884,1045.272z M1211.854,1025.461c-0.708,0-1.336,0.125-1.884,0.374
			c-0.55,0.25-1.027,0.703-1.435,1.361c-0.406,0.659-0.733,1.549-0.98,2.67c-0.248,1.122-0.425,2.537-0.531,4.245h8.544
			c0.249-2.776,0.091-4.912-0.476-6.407C1214.524,1026.208,1213.445,1025.461,1211.854,1025.461z"/>
		<path d="M1241.093,1029.199c-0.427,0.215-0.927,0.571-1.495,1.071c-0.57,0.5-1.087,1.32-1.549,2.463v13.71
			c0.712,0.072,1.423,0.206,2.136,0.401c0.712,0.197,1.424,0.493,2.137,0.885v2.028h-15.486v-2.028
			c0.641-0.357,1.245-0.626,1.815-0.805c0.569-0.178,1.139-0.34,1.709-0.483v-19.644l-3.524-0.43v-2.028
			c0.569-0.249,1.272-0.48,2.109-0.694c0.835-0.214,1.699-0.4,2.59-0.561c0.89-0.161,1.753-0.294,2.59-0.401
			c0.836-0.106,1.539-0.195,2.108-0.267h1.816v7.103h0.213c0.286-0.782,0.703-1.602,1.255-2.456c0.552-0.855,1.202-1.638,1.95-2.35
			c0.747-0.712,1.565-1.282,2.455-1.709c0.89-0.428,1.816-0.622,2.777-0.588c0.392,0.499,0.729,1.202,1.015,2.11
			c0.285,0.907,0.517,1.771,0.694,2.59v2.082H1241.093z"/>
		<path d="M1262.079,1046.192c0.818,0.177,1.549,0.407,2.19,0.688c0.64,0.283,1.263,0.565,1.868,0.849v2.028h-16.448v-2.028
			c0.783-0.428,1.531-0.756,2.243-0.988c0.712-0.231,1.424-0.418,2.137-0.562v-30.224c-1.78-0.392-3.24-0.908-4.38-1.549v-2.029
			h5.661c0.712,0,1.521-0.018,2.43-0.054c0.907-0.034,1.86-0.08,2.857-0.133c0.996-0.054,2.011-0.106,3.044-0.161
			c1.031-0.053,2.028-0.08,2.99-0.08c1.957,0,3.765,0.224,5.419,0.672c1.656,0.446,3.08,1.118,4.272,2.013
			c1.192,0.894,2.118,2.012,2.777,3.354c0.658,1.342,0.988,2.906,0.988,4.695c0,2.576-0.624,4.688-1.869,6.332
			c-1.247,1.646-2.956,2.88-5.127,3.703c1.423,2.227,2.937,4.5,4.539,6.816c1.602,2.316,3.292,4.554,5.073,6.71l2.562,1.697v1.815
			h-8.918l-2.296-1.75c-1.638-1.945-3.089-4.2-4.352-6.764c-1.265-2.564-2.376-5.083-3.338-7.559h-4.325V1046.192z
			 M1264.765,1015.422c-1.11,0-2.006,0.106-2.686,0.321v14.897h3.168c1.825,0,3.383-0.649,4.672-1.949
			c1.287-1.299,1.932-3.23,1.932-5.793c0-1.316-0.179-2.447-0.536-3.392c-0.358-0.942-0.86-1.717-1.504-2.322
			c-0.645-0.605-1.396-1.051-2.256-1.336C1266.695,1015.564,1265.766,1015.422,1264.765,1015.422z"/>
		<path d="M1287.497,1036.408c0-2.171,0.329-4.12,0.987-5.847c0.659-1.727,1.604-3.195,2.83-4.406
			c1.229-1.21,2.715-2.136,4.46-2.777c1.743-0.641,3.72-0.961,5.928-0.961c2.491,0,4.636,0.348,6.435,1.041
			c1.797,0.694,3.274,1.656,4.432,2.885s2.003,2.705,2.537,4.432c0.533,1.728,0.801,3.604,0.801,5.634
			c0,2.172-0.32,4.12-0.961,5.847c-0.641,1.729-1.576,3.196-2.805,4.406c-1.228,1.21-2.723,2.136-4.484,2.776
			c-1.763,0.642-3.748,0.961-5.954,0.961c-2.422,0-4.522-0.347-6.301-1.041c-1.781-0.694-3.258-1.655-4.434-2.883
			c-1.174-1.229-2.047-2.705-2.616-4.433C1287.781,1040.315,1287.497,1038.438,1287.497,1036.408z M1295.774,1036.408
			c0,1.602,0.098,3.07,0.293,4.405s0.543,2.466,1.042,3.392c0.498,0.926,1.175,1.646,2.029,2.162
			c0.854,0.517,1.957,0.774,3.311,0.774c0.783,0,1.495-0.187,2.136-0.561c0.642-0.374,1.192-0.979,1.655-1.815
			s0.81-1.94,1.042-3.312c0.23-1.37,0.348-3.052,0.348-5.046c0-1.637-0.099-3.114-0.295-4.432c-0.195-1.317-0.534-2.438-1.015-3.365
			c-0.48-0.925-1.13-1.646-1.949-2.162c-0.818-0.516-1.851-0.774-3.096-0.774c-0.928,0-1.729,0.187-2.404,0.561
			c-0.677,0.374-1.246,0.979-1.708,1.815c-0.463,0.837-0.811,1.94-1.042,3.311
			C1295.89,1032.733,1295.774,1034.415,1295.774,1036.408z"/>
		<path d="M1319.217,1036.408c0-2.171,0.328-4.12,0.987-5.847s1.603-3.195,2.83-4.406c1.229-1.21,2.715-2.136,4.46-2.777
			c1.743-0.641,3.719-0.961,5.926-0.961c2.492,0,4.638,0.348,6.437,1.041c1.797,0.694,3.274,1.656,4.432,2.885
			c1.156,1.229,2.002,2.705,2.537,4.432c0.533,1.728,0.801,3.604,0.801,5.634c0,2.172-0.321,4.12-0.961,5.847
			c-0.642,1.729-1.576,3.196-2.805,4.406c-1.228,1.21-2.723,2.136-4.485,2.776c-1.762,0.642-3.747,0.961-5.955,0.961
			c-2.421,0-4.521-0.347-6.3-1.041c-1.781-0.694-3.258-1.655-4.433-2.883c-1.175-1.229-2.047-2.705-2.616-4.433
			C1319.501,1040.315,1319.217,1038.438,1319.217,1036.408z M1327.494,1036.408c0,1.602,0.097,3.07,0.293,4.405
			c0.195,1.335,0.542,2.466,1.041,3.392s1.175,1.646,2.03,2.162c0.854,0.517,1.958,0.774,3.311,0.774
			c0.782,0,1.495-0.187,2.136-0.561c0.642-0.374,1.192-0.979,1.655-1.815s0.81-1.94,1.042-3.312c0.231-1.37,0.347-3.052,0.347-5.046
			c0-1.637-0.099-3.114-0.294-4.432c-0.196-1.317-0.534-2.438-1.015-3.365c-0.48-0.925-1.131-1.646-1.949-2.162
			c-0.819-0.516-1.851-0.774-3.097-0.774c-0.927,0-1.728,0.187-2.403,0.561c-0.677,0.374-1.246,0.979-1.708,1.815
			c-0.464,0.837-0.812,1.94-1.042,3.311C1327.608,1032.733,1327.494,1034.415,1327.494,1036.408z"/>
		<path d="M1349.708,1024.39c1.353-0.878,2.776-1.499,4.271-1.865v-4.325c0.284-0.214,0.988-0.525,2.11-0.936
			c1.12-0.408,2.375-0.738,3.764-0.987h1.815v6.782h7.05v3.471h-7.05v13.755c0,2.196,0.275,3.719,0.828,4.568
			c0.552,0.851,1.469,1.274,2.751,1.274c0.641,0,1.36-0.044,2.162-0.133c0.801-0.09,1.539-0.259,2.216-0.508l0.374,1.763
			c-0.32,0.319-0.793,0.658-1.416,1.015c-0.622,0.355-1.334,0.693-2.135,1.014c-0.802,0.32-1.675,0.588-2.616,0.802
			c-0.944,0.213-1.933,0.319-2.965,0.319c-2.313,0-4.04-0.603-5.179-1.807c-1.141-1.205-1.71-3.154-1.71-5.848v-16.215h-4.271
			V1024.39z"/>
	</g>
</g>
<g>
	<g>
		<path d="M299.16,1511.801c0-0.994-0.806-1.801-1.8-1.801h-86.399c-0.994,0-1.801,0.807-1.801,1.801v56.398
			c0,0.994,0.807,1.801,1.801,1.801h86.399c0.994,0,1.8-0.807,1.8-1.801V1511.801z M271.561,1562.326
			c0,1.051-1.062,1.674-2.112,1.674h-4.199c-3.36,0-6.288-2.514-6.288-5.873v-8.064c0-3.359,2.928-5.863,6.288-5.863h2.111v-6.904
			c0-1.049,1.051-1.891,2.101-1.891s2.1,0.842,2.1,1.891V1562.326z M292.907,1538.023l-14.452,25.031
			c-0.351,0.607-0.985,0.945-1.639,0.945c-0.32,0-0.646-0.082-0.943-0.254c-0.903-0.521-1.214-1.678-0.691-2.582l14.452-25.031
			c0.522-0.904,1.678-1.214,2.582-0.691C293.119,1535.963,293.429,1537.119,292.907,1538.023z"/>
		<path d="M263.16,1550.062v8.064c0,1.26,0.828,2.273,2.089,2.273h2.111v-12.6h-2.111
			C263.988,1547.801,263.16,1548.803,263.16,1550.062z"/>
	</g>
	<g>
		<path d="M319.16,1510h17.107c2.337,0,4.332,0.827,5.987,2.482c1.654,1.655,2.482,3.679,2.482,6.071v42.81
			c0,2.336-0.828,4.332-2.482,5.987c-1.655,1.655-3.65,2.482-5.987,2.482H319.16V1510z M327.631,1518.47v42.894h5.382
			c0.918,0,1.69-0.313,2.316-0.939s0.938-1.397,0.938-2.315v-36.384c0-0.918-0.312-1.689-0.938-2.315s-1.398-0.939-2.316-0.939
			H327.631z"/>
		<path d="M362.823,1527.274c3.532,0,6.551,1.224,9.054,3.671c2.504,2.448,3.783,5.438,3.839,8.972v17.19
			c0,3.588-1.266,6.634-3.797,9.138c-2.531,2.503-5.563,3.755-9.096,3.755c-3.533,0-6.537-1.224-9.013-3.672
			c-2.477-2.447-3.77-5.41-3.88-8.888v-0.333v-16.94c0-3.589,1.251-6.635,3.755-9.138
			C356.188,1528.525,359.234,1527.274,362.823,1527.274z M365.848,1537.142c-0.82-0.82-1.829-1.23-3.024-1.23
			c-1.196,0-2.212,0.41-3.046,1.23c-0.835,0.821-1.252,1.802-1.252,2.941v17.024c0,1.195,0.417,2.204,1.252,3.024
			c0.834,0.821,1.85,1.231,3.046,1.231c1.141,0,2.134-0.396,2.983-1.189c0.849-0.793,1.272-1.76,1.272-2.899v-17.107
			C367.079,1538.971,366.668,1537.963,365.848,1537.142z"/>
		<path d="M389.975,1560.049c0.819,0.82,1.828,1.23,3.024,1.23c1.195,0,2.212-0.41,3.046-1.23c0.835-0.82,1.252-1.829,1.252-3.025
			h8.512c0,3.533-1.252,6.551-3.755,9.055c-2.504,2.503-5.522,3.755-9.055,3.755s-6.551-1.252-9.054-3.755
			c-2.504-2.504-3.756-5.521-3.756-9.055v-17.106c0-3.533,1.252-6.551,3.756-9.055c2.503-2.504,5.521-3.755,9.054-3.755
			s6.551,1.251,9.055,3.755c2.503,2.504,3.755,5.521,3.755,9.055h-8.512c0-1.196-0.417-2.205-1.252-3.025
			c-0.834-0.82-1.851-1.231-3.046-1.231c-1.196,0-2.205,0.411-3.024,1.231c-0.821,0.82-1.231,1.829-1.231,3.025v17.106
			C388.743,1558.22,389.153,1559.229,389.975,1560.049z"/>
		<path d="M409.848,1510h8.553v34.214l8.554-17.106h8.512l-8.512,17.106l8.512,25.619h-8.512l-5.132-15.396l-3.422,6.843v8.554
			h-8.553v-8.554V1510z"/>
		<path d="M440.329,1530.862c2.504-2.504,5.521-3.755,9.055-3.755c3.532,0,6.551,1.251,9.054,3.755
			c2.504,2.504,3.756,5.521,3.756,9.055v4.297v8.512h-8.554h-8.554v4.298c0,1.196,0.417,2.205,1.252,3.025
			c0.834,0.82,1.85,1.23,3.046,1.23c1.195,0,2.204-0.41,3.025-1.23c0.819-0.82,1.23-1.829,1.23-3.025h8.554
			c0,3.533-1.252,6.551-3.756,9.055c-2.503,2.503-5.521,3.755-9.054,3.755c-3.533,0-6.551-1.252-9.055-3.755
			c-2.503-2.504-3.755-5.521-3.755-9.055v-17.106C436.574,1536.384,437.826,1533.366,440.329,1530.862z M445.086,1544.214h8.554
			v-4.297c0-1.196-0.411-2.205-1.23-3.025c-0.821-0.82-1.83-1.231-3.025-1.231c-1.196,0-2.212,0.411-3.046,1.231
			c-0.835,0.82-1.252,1.829-1.252,3.025V1544.214z"/>
		<path d="M484.743,1510.083l17.107,0.084c2.336,0,4.332,0.827,5.987,2.482c1.654,1.655,2.482,3.651,2.482,5.987v17.107
			c0,3.255-1.405,5.702-4.214,7.344l4.214,26.745h-8.47l-4.257-25.619h-4.381v25.619h-8.47V1510.083z M493.213,1518.554v17.273
			h5.383c0.918,0,1.689-0.326,2.315-0.98c0.626-0.653,0.939-1.411,0.939-2.273v-10.682c0-0.918-0.313-1.704-0.939-2.357
			s-1.397-0.98-2.315-0.98H493.213z"/>
		<path d="M527.807,1527.274c3.531,0,6.552,1.224,9.055,3.671c2.504,2.448,3.781,5.438,3.839,8.972v17.19
			c0,3.588-1.268,6.634-3.797,9.138c-2.531,2.503-5.565,3.755-9.097,3.755c-3.532,0-6.536-1.224-9.013-3.672
			c-2.477-2.447-3.77-5.41-3.881-8.888v-0.333v-16.94c0-3.589,1.252-6.635,3.756-9.138
			C521.173,1528.525,524.219,1527.274,527.807,1527.274z M530.832,1537.142c-0.82-0.82-1.83-1.23-3.025-1.23
			c-1.196,0-2.211,0.41-3.046,1.23c-0.834,0.821-1.252,1.802-1.252,2.941v17.024c0,1.195,0.418,2.204,1.252,3.024
			c0.835,0.821,1.85,1.231,3.046,1.231c1.141,0,2.134-0.396,2.984-1.189c0.849-0.793,1.272-1.76,1.272-2.899v-17.107
			C532.063,1538.971,531.65,1537.963,530.832,1537.142z"/>
		<path d="M557.814,1527.274c3.532,0,6.551,1.224,9.055,3.671c2.503,2.448,3.782,5.438,3.838,8.972v17.19
			c0,3.588-1.266,6.634-3.797,9.138c-2.531,2.503-5.563,3.755-9.096,3.755c-3.533,0-6.537-1.224-9.013-3.672
			c-2.476-2.447-3.769-5.41-3.88-8.888v-0.333v-16.94c0-3.589,1.251-6.635,3.755-9.138
			C551.181,1528.525,554.227,1527.274,557.814,1527.274z M560.84,1537.142c-0.821-0.82-1.829-1.23-3.025-1.23
			s-2.212,0.41-3.046,1.23c-0.835,0.821-1.252,1.802-1.252,2.941v17.024c0,1.195,0.417,2.204,1.252,3.024
			c0.834,0.821,1.85,1.231,3.046,1.231c1.141,0,2.135-0.396,2.983-1.189s1.272-1.76,1.272-2.899v-17.107
			C562.07,1538.971,561.66,1537.963,560.84,1537.142z"/>
		<path d="M578.03,1514.381h8.512v12.81h4.298v8.554h-4.298v21.363c0,1.14,0.417,2.135,1.252,2.983
			c0.834,0.848,1.85,1.272,3.046,1.272v8.554c-3.533,0-6.551-1.252-9.055-3.756c-2.503-2.503-3.755-5.521-3.755-9.054v-21.363
			h-4.298v-8.554h4.298V1514.381z"/>
		<path d="M467.021,1569.833L467.021,1569.833V1540c0-3.588,1.252-6.634,3.756-9.138c2.503-2.504,5.549-3.755,9.137-3.755v8.637
			c-1.195,0-2.211,0.41-3.045,1.23c-0.835,0.821-1.252,1.802-1.252,2.942v29.916H467.021z"/>
	</g>
</g>
<g>
	<g>
		<path d="M1370,1402.873c0-3.312-2.688-6-6-6h-288c-3.312,0-6,2.688-6,6v188c0,3.312,2.688,6,6,6h288c3.312,0,6-2.688,6-6V1402.873
			z M1278,1571.295c0,3.5-3.539,5.578-7.039,5.578h-14c-11.201,0-20.961-8.379-20.961-19.578v-26.879
			c0-11.199,9.76-19.543,20.961-19.543H1264v-23.016c0-3.5,3.5-6.301,7-6.301s7,2.801,7,6.301V1571.295z M1349.156,1490.283
			l-48.176,83.438c-1.166,2.023-3.285,3.152-5.461,3.152c-1.07,0-2.152-0.273-3.145-0.844c-3.012-1.742-4.045-5.594-2.305-8.609
			l48.172-83.438c1.742-3.012,5.596-4.045,8.607-2.305C1349.863,1483.416,1350.895,1487.27,1349.156,1490.283z"/>
		<path d="M1250,1530.416v26.879c0,4.199,2.76,7.578,6.961,7.578H1264v-42h-7.039C1252.76,1522.873,1250,1526.217,1250,1530.416z"/>
	</g>
	<g>
		<path d="M1070,1616.873h18.891c2.58,0,4.783,0.913,6.611,2.741c1.826,1.827,2.742,4.062,2.742,6.704v47.271
			c0,2.58-0.916,4.784-2.742,6.611c-1.828,1.828-4.031,2.742-6.611,2.742H1070V1616.873z M1079.354,1626.226v47.364h5.943
			c1.014,0,1.865-0.346,2.557-1.036c0.691-0.691,1.037-1.544,1.037-2.558v-40.177c0-1.014-0.346-1.866-1.037-2.557
			c-0.691-0.691-1.543-1.037-2.557-1.037H1079.354z"/>
		<path d="M1118.213,1635.947c3.9,0,7.234,1.352,10,4.055c2.764,2.703,4.176,6.005,4.238,9.906v18.982
			c0,3.962-1.398,7.325-4.193,10.09s-6.145,4.146-10.045,4.146s-7.217-1.352-9.951-4.054c-2.734-2.703-4.164-5.975-4.285-9.814
			v-0.368v-18.706c0-3.963,1.383-7.326,4.146-10.091C1110.889,1637.33,1114.252,1635.947,1118.213,1635.947z M1121.555,1646.844
			c-0.906-0.906-2.021-1.359-3.342-1.359s-2.441,0.453-3.363,1.359c-0.92,0.906-1.381,1.989-1.381,3.248v18.799
			c0,1.32,0.461,2.434,1.381,3.34c0.922,0.906,2.043,1.359,3.363,1.359c1.26,0,2.357-0.438,3.295-1.312
			c0.938-0.876,1.406-1.943,1.406-3.202v-18.891C1122.914,1648.863,1122.459,1647.75,1121.555,1646.844z"/>
		<path d="M1148.195,1672.139c0.904,0.906,2.02,1.359,3.34,1.359s2.443-0.453,3.363-1.359c0.922-0.906,1.383-2.02,1.383-3.341h9.398
			c0,3.901-1.381,7.234-4.146,9.999c-2.764,2.764-6.098,4.146-9.998,4.146s-7.232-1.383-9.998-4.146
			c-2.764-2.765-4.146-6.098-4.146-9.999v-18.89c0-3.901,1.383-7.234,4.146-9.998c2.766-2.765,6.098-4.147,9.998-4.147
			s7.234,1.383,9.998,4.147c2.766,2.764,4.146,6.097,4.146,9.998h-9.398c0-1.321-0.461-2.435-1.383-3.341
			c-0.92-0.906-2.043-1.359-3.363-1.359s-2.436,0.453-3.34,1.359c-0.906,0.906-1.359,2.02-1.359,3.341v18.89
			C1146.836,1670.119,1147.289,1671.232,1148.195,1672.139z"/>
		<path d="M1170.141,1616.873h9.445v37.78l9.445-18.891h9.398l-9.398,18.891l9.398,28.29h-9.398l-5.668-17.002l-3.777,7.557v9.445
			h-9.445v-9.445V1616.873z"/>
		<path d="M1203.801,1639.91c2.764-2.765,6.098-4.147,9.998-4.147s7.234,1.383,9.998,4.147c2.764,2.764,4.146,6.097,4.146,9.998
			v4.745v9.399h-9.445h-9.445v4.745c0,1.321,0.461,2.435,1.383,3.341s2.043,1.359,3.363,1.359c1.318,0,2.434-0.453,3.34-1.359
			c0.904-0.906,1.359-2.02,1.359-3.341h9.445c0,3.901-1.383,7.234-4.146,9.999c-2.764,2.764-6.098,4.146-9.998,4.146
			s-7.234-1.383-9.998-4.146c-2.766-2.765-4.146-6.098-4.146-9.999v-18.89C1199.654,1646.007,1201.035,1642.674,1203.801,1639.91z
			 M1209.053,1654.653h9.445v-4.745c0-1.321-0.455-2.435-1.359-3.341c-0.906-0.906-2.021-1.359-3.34-1.359
			c-1.32,0-2.441,0.453-3.363,1.359s-1.383,2.02-1.383,3.341V1654.653z"/>
		<path d="M1252.844,1616.965l18.891,0.092c2.58,0,4.783,0.914,6.611,2.742c1.826,1.827,2.742,4.031,2.742,6.611v18.891
			c0,3.594-1.551,6.297-4.654,8.108l4.654,29.534h-9.354l-4.699-28.29h-4.838v28.29h-9.354V1616.965z M1262.197,1626.318v19.074
			h5.943c1.014,0,1.865-0.361,2.557-1.083s1.037-1.559,1.037-2.511v-11.795c0-1.014-0.346-1.882-1.037-2.604
			s-1.543-1.082-2.557-1.082H1262.197z"/>
		<path d="M1300.396,1635.947c3.9,0,7.234,1.352,10,4.055c2.764,2.703,4.174,6.005,4.238,9.906v18.982
			c0,3.962-1.4,7.325-4.193,10.09c-2.795,2.765-6.145,4.146-10.045,4.146s-7.219-1.352-9.953-4.054
			c-2.734-2.703-4.162-5.975-4.285-9.814v-0.368v-18.706c0-3.963,1.383-7.326,4.148-10.091
			C1293.07,1637.33,1296.434,1635.947,1300.396,1635.947z M1303.738,1646.844c-0.906-0.906-2.021-1.359-3.342-1.359
			s-2.441,0.453-3.363,1.359s-1.383,1.989-1.383,3.248v18.799c0,1.32,0.461,2.434,1.383,3.34s2.043,1.359,3.363,1.359
			c1.26,0,2.355-0.438,3.295-1.312c0.938-0.876,1.406-1.943,1.406-3.202v-18.891
			C1305.098,1648.863,1304.641,1647.75,1303.738,1646.844z"/>
		<path d="M1333.533,1635.947c3.9,0,7.232,1.352,9.998,4.055c2.764,2.703,4.178,6.005,4.238,9.906v18.982
			c0,3.962-1.398,7.325-4.193,10.09s-6.143,4.146-10.043,4.146c-3.902,0-7.219-1.352-9.953-4.054
			c-2.732-2.703-4.162-5.975-4.285-9.814v-0.368v-18.706c0-3.963,1.383-7.326,4.148-10.091
			C1326.207,1637.33,1329.57,1635.947,1333.533,1635.947z M1336.873,1646.844c-0.906-0.906-2.02-1.359-3.34-1.359
			c-1.322,0-2.443,0.453-3.363,1.359c-0.922,0.906-1.383,1.989-1.383,3.248v18.799c0,1.32,0.461,2.434,1.383,3.34
			c0.92,0.906,2.041,1.359,3.363,1.359c1.26,0,2.357-0.438,3.293-1.312c0.938-0.876,1.406-1.943,1.406-3.202v-18.891
			C1338.232,1648.863,1337.779,1647.75,1336.873,1646.844z"/>
		<path d="M1355.855,1621.711h9.398v14.145H1370v9.445h-4.746v23.59c0,1.259,0.461,2.357,1.383,3.294s2.043,1.405,3.363,1.405v9.445
			c-3.9,0-7.232-1.382-9.998-4.146c-2.764-2.765-4.146-6.098-4.146-9.998v-23.59h-4.746v-9.445h4.746V1621.711z"/>
		<path d="M1233.275,1682.943L1233.275,1682.943V1650c0-3.962,1.383-7.326,4.146-10.09c2.764-2.765,6.127-4.147,10.09-4.147v9.538
			c-1.32,0-2.441,0.453-3.363,1.359c-0.922,0.905-1.383,1.988-1.383,3.248v33.035H1233.275z"/>
	</g>
</g>
<text transform="matrix(1 0 0 1 30 45.4258)" font-family="'HelveticaNeue-Thin'" font-size="18">Horizontal</text>
<text transform="matrix(1 0 0 1 850 45.4258)" font-family="'HelveticaNeue-Thin'" font-size="18">Vertical</text>
<g>
	<g>
		<path d="M284.335,271.801c0-0.994-0.806-1.801-1.8-1.801h-86.4c-0.994,0-1.8,0.807-1.8,1.801v56.398
			c0,0.994,0.806,1.801,1.8,1.801h86.4c0.994,0,1.8-0.807,1.8-1.801V271.801z M256.736,322.326c0,1.051-1.062,1.674-2.112,1.674
			h-4.2c-3.36,0-6.288-2.514-6.288-5.873v-8.064c0-3.359,2.928-5.863,6.288-5.863h2.112v-6.904c0-1.049,1.05-1.891,2.1-1.891
			c1.05,0,2.1,0.842,2.1,1.891V322.326z M278.082,298.023l-14.452,25.031c-0.35,0.607-0.985,0.945-1.638,0.945
			c-0.321,0-0.646-0.082-0.943-0.254c-0.904-0.521-1.214-1.678-0.692-2.582l14.452-25.031c0.522-0.904,1.678-1.214,2.582-0.691
			C278.294,295.963,278.604,297.119,278.082,298.023z"/>
		<path d="M248.335,310.062v8.064c0,1.26,0.828,2.273,2.088,2.273h2.112v-12.6h-2.112
			C249.164,307.801,248.335,308.803,248.335,310.062z"/>
	</g>
	<g>
		<path d="M311.336,270c8.303,0,15,6.696,15,15v29.644c0,8.303-6.696,15-15,15h-10.713c-2.413,0-4.288-1.875-4.288-4.286v-51.071
			c0-2.322,1.875-4.286,4.288-4.286H311.336z M311.336,278.571h-6.43v42.501h6.43c3.571,0,6.428-2.858,6.428-6.429V285
			C317.765,281.429,314.907,278.571,311.336,278.571z"/>
		<path d="M333.509,316.785V298.93c0-7.145,5.804-12.949,12.947-12.949c7.145,0,12.947,5.804,12.947,12.949v17.855
			c0,7.145-5.802,12.947-12.947,12.947C339.313,329.731,333.509,323.93,333.509,316.785z M341.546,298.93v17.855
			c0,2.678,2.143,4.912,4.91,4.912c2.678,0,4.912-2.233,4.912-4.912V298.93c0-2.681-2.233-4.912-4.912-4.912
			C343.689,294.018,341.546,296.249,341.546,298.93z"/>
		<path d="M365.596,316.785V298.93c0-5.269,3.125-9.912,7.947-11.966c4.912-1.963,10.448-0.892,14.107,2.857
			c1.607,1.519,1.607,4.106,0,5.625c-1.519,1.607-4.108,1.607-5.625,0c-1.428-1.428-3.571-1.785-5.357-1.072
			c-1.877,0.804-3.037,2.59-3.037,4.556v17.855c0,1.965,1.16,3.751,3.037,4.555c1.786,0.713,3.929,0.356,5.357-1.071
			c1.516-1.607,4.106-1.607,5.625,0c1.607,1.607,1.607,4.106,0,5.713c-3.659,3.661-9.195,4.821-14.107,2.769
			C368.722,326.697,365.596,322.053,365.596,316.785z"/>
		<path d="M421.799,323.75c1.072,1.963,0.356,4.463-1.607,5.448c-1.875,1.069-4.374,0.445-5.447-1.519l-9.375-17.144l-2.679,2.946
			v12.232c0,2.233-1.784,4.018-4.018,4.018s-4.018-1.784-4.018-4.018v-51.696c0-2.233,1.784-4.018,4.018-4.018
			s4.018,1.784,4.018,4.018v27.411l12.589-14.107c1.519-1.607,4.018-1.786,5.715-0.268c1.607,1.428,1.786,4.018,0.268,5.625
			l-10.267,11.517L421.799,323.75z"/>
		<path d="M426.411,316.785V298.93c0-7.145,5.804-12.949,12.947-12.949s12.947,5.804,12.947,12.949v8.927
			c0,2.231-1.787,4.018-4.018,4.018h-13.839v4.91c0,1.965,1.16,3.751,3.035,4.555c1.875,0.713,3.929,0.356,5.357-1.071
			c1.519-1.607,4.108-1.607,5.715,0c1.519,1.607,1.519,4.106,0,5.713c-3.75,3.661-9.286,4.821-14.107,2.769
			C429.536,326.697,426.411,322.053,426.411,316.785z M434.448,298.93v4.91c3.035,0,7.052,0,9.821,0c0-2.411,0-4.91,0-4.91
			c0-2.681-2.233-4.912-4.912-4.912S434.448,296.249,434.448,298.93z"/>
		<path d="M458.552,325.714v-35.357c0-2.231,1.785-4.018,4.018-4.018h8.929c2.231,0,4.463,0.625,6.428,1.696
			c1.964,1.16,2.588,3.573,1.519,5.536c-1.162,1.875-3.573,2.59-5.536,1.43c-0.715-0.358-1.519-0.626-2.411-0.626h-4.912v31.34
			c0,2.233-1.784,4.018-4.018,4.018S458.552,327.947,458.552,325.714z"/>
		<path d="M506.657,303.302l7.768,20.894c0.894,2.233-0.268,4.733-2.5,5.536c-2.233,0.806-4.644-0.268-5.536-2.499L498.086,305
			h-4.821v20.714c0,2.411-1.875,4.286-4.288,4.286c-2.32,0-4.286-1.875-4.286-4.286v-51.428c0-2.322,1.965-4.286,4.286-4.286h10.714
			c8.305,0,15.001,6.696,15.001,15v5C514.692,295.804,511.479,300.803,506.657,303.302z M493.265,296.428h6.426
			c3.572,0,6.43-2.857,6.43-6.428v-5c0-3.571-2.858-6.429-6.43-6.429h-6.426V296.428z"/>
		<path d="M519.564,316.785V298.93c0-7.145,5.804-12.949,12.947-12.949s12.947,5.804,12.947,12.949v17.855
			c0,7.145-5.804,12.947-12.947,12.947S519.564,323.93,519.564,316.785z M527.599,298.93v17.855c0,2.678,2.143,4.912,4.912,4.912
			c2.678,0,4.912-2.233,4.912-4.912V298.93c0-2.681-2.233-4.912-4.912-4.912C529.742,294.018,527.599,296.249,527.599,298.93z"/>
		<path d="M551.651,316.785V298.93c0-7.145,5.802-12.949,12.945-12.949c7.144,0,12.947,5.804,12.947,12.949v17.855
			c0,7.145-5.804,12.947-12.947,12.947C557.453,329.731,551.651,323.93,551.651,316.785z M559.686,298.93v17.855
			c0,2.678,2.143,4.912,4.91,4.912c2.679,0,4.912-2.233,4.912-4.912V298.93c0-2.681-2.233-4.912-4.912-4.912
			C561.829,294.018,559.686,296.249,559.686,298.93z"/>
		<path d="M581.559,290.356c0-2.231,1.786-4.018,4.018-4.018h3.126v-12.321c0-2.233,1.786-4.018,4.018-4.018
			s4.018,1.784,4.018,4.018v12.321h4.91c2.233,0,4.018,1.787,4.018,4.018c0,2.231-1.784,4.018-4.018,4.018h-4.91v22.411
			c0,2.678,2.231,4.912,4.91,4.912c2.233,0,4.018,1.784,4.018,4.018s-1.784,4.018-4.018,4.018c-7.141,0-12.945-5.802-12.945-12.947
			v-22.411h-3.126C583.345,294.374,581.559,292.588,581.559,290.356z"/>
		<g display="none">
			<path display="inline" d="M311.334,270c8.305,0,15.001,6.696,15.001,14.997v29.644c0,8.305-6.696,15.001-15.001,15.001h-10.713
				c-2.411,0-4.286-1.875-4.286-4.286v-51.071c0-2.322,1.875-4.286,4.286-4.286H311.334z"/>
			<polygon display="inline" fill="#FFFFFF" points="309.536,322.443 303.537,322.443 311.937,279.242 317.936,279.242 			"/>
		</g>
	</g>
</g>
<g>
	<g>
		<path d="M1370,166.905c0-3.312-2.688-6-6-6h-288c-3.312,0-6,2.688-6,6v188c0,3.312,2.688,6,6,6h288c3.312,0,6-2.688,6-6V166.905z
			 M1278,335.327c0,3.5-3.539,5.578-7.039,5.578h-14c-11.201,0-20.961-8.379-20.961-19.578v-26.879
			c0-11.199,9.76-19.543,20.961-19.543H1264V251.89c0-3.5,3.5-6.301,7-6.301s7,2.801,7,6.301V335.327z M1349.156,254.315
			l-48.176,83.438c-1.166,2.023-3.285,3.152-5.461,3.152c-1.07,0-2.152-0.273-3.145-0.844c-3.012-1.742-4.045-5.594-2.305-8.609
			l48.172-83.438c1.742-3.012,5.596-4.045,8.607-2.305C1349.863,247.448,1350.895,251.302,1349.156,254.315z"/>
		<path d="M1250,294.448v26.879c0,4.199,2.76,7.578,6.961,7.578H1264v-42h-7.039C1252.76,286.905,1250,290.249,1250,294.448z"/>
	</g>
	<g>
		<path d="M1084.548,380.905c8.052,0,14.548,6.494,14.548,14.547v28.75c0,8.053-6.496,14.547-14.548,14.547h-10.39
			c-2.34,0-4.158-1.818-4.158-4.156v-49.531c0-2.252,1.818-4.156,4.158-4.156H1084.548z M1084.548,389.217h-6.236v41.22h6.236
			c3.463,0,6.233-2.772,6.233-6.235v-28.75C1090.781,391.989,1088.011,389.217,1084.548,389.217z"/>
		<path d="M1106.053,426.278v-17.316c0-6.93,5.628-12.559,12.557-12.559c6.93,0,12.556,5.629,12.556,12.559v17.316
			c0,6.93-5.626,12.557-12.556,12.557C1111.681,438.835,1106.053,433.208,1106.053,426.278z M1113.848,408.962v17.316
			c0,2.598,2.078,4.764,4.762,4.764c2.598,0,4.763-2.166,4.763-4.764v-17.316c0-2.6-2.165-4.764-4.763-4.764
			C1115.926,404.198,1113.848,406.362,1113.848,408.962z"/>
		<path d="M1137.171,426.278v-17.316c0-5.11,3.031-9.613,7.708-11.605c4.764-1.904,10.132-0.865,13.682,2.771
			c1.558,1.473,1.558,3.982,0,5.455c-1.474,1.559-3.985,1.559-5.455,0c-1.385-1.385-3.463-1.731-5.196-1.04
			c-1.82,0.78-2.945,2.512-2.945,4.418v17.316c0,1.906,1.125,3.639,2.945,4.418c1.733,0.691,3.812,0.346,5.196-1.039
			c1.47-1.558,3.981-1.558,5.455,0c1.558,1.559,1.558,3.983,0,5.541c-3.55,3.551-8.918,4.676-13.682,2.686
			C1140.202,435.892,1137.171,431.388,1137.171,426.278z"/>
		<path d="M1191.68,433.034c1.04,1.904,0.345,4.329-1.56,5.284c-1.818,1.037-4.241,0.431-5.282-1.473l-9.093-16.627l-2.597,2.857
			v11.863c0,2.166-1.731,3.896-3.896,3.896c-2.167,0-3.896-1.73-3.896-3.896v-50.137c0-2.166,1.729-3.896,3.896-3.896
			c2.165,0,3.896,1.73,3.896,3.896v26.584l12.208-13.682c1.474-1.559,3.896-1.732,5.545-0.26c1.557,1.385,1.73,3.896,0.259,5.455
			l-9.958,11.17L1191.68,433.034z"/>
		<path d="M1196.151,426.278v-17.316c0-6.93,5.63-12.559,12.558-12.559c6.927,0,12.557,5.629,12.557,12.559v8.658
			c0,2.164-1.733,3.896-3.896,3.896h-13.423v4.762c0,1.906,1.125,3.639,2.943,4.418c1.819,0.691,3.812,0.346,5.196-1.039
			c1.472-1.558,3.983-1.558,5.543,0c1.474,1.559,1.474,3.983,0,5.541c-3.638,3.551-9.006,4.676-13.683,2.686
			C1199.183,435.892,1196.151,431.388,1196.151,426.278z M1203.946,408.962v4.762c2.943,0,6.84,0,9.526,0c0-2.338,0-4.762,0-4.762
			c0-2.6-2.167-4.764-4.764-4.764C1206.111,404.198,1203.946,406.362,1203.946,408.962z"/>
		<path d="M1227.323,434.938v-34.291c0-2.164,1.731-3.896,3.898-3.896h8.658c2.165,0,4.328,0.605,6.235,1.645
			c1.904,1.125,2.511,3.465,1.473,5.369c-1.127,1.818-3.465,2.512-5.368,1.387c-0.693-0.348-1.475-0.608-2.34-0.608h-4.762v30.395
			c0,2.166-1.731,3.896-3.896,3.896C1229.055,438.835,1227.323,437.104,1227.323,434.938z"/>
		<path d="M1273.978,413.202l7.534,20.264c0.867,2.166-0.26,4.59-2.423,5.369c-2.167,0.781-4.505-0.26-5.37-2.424l-8.053-21.562
			h-4.675v20.09c0,2.338-1.818,4.156-4.16,4.156c-2.25,0-4.155-1.818-4.155-4.156v-49.877c0-2.252,1.905-4.156,4.155-4.156h10.392
			c8.055,0,14.548,6.494,14.548,14.547v4.85C1281.771,405.931,1278.654,410.778,1273.978,413.202z M1260.991,406.536h6.231
			c3.465,0,6.236-2.771,6.236-6.234v-4.85c0-3.463-2.771-6.235-6.236-6.235h-6.231V406.536z"/>
		<path d="M1286.497,426.278v-17.316c0-6.93,5.628-12.559,12.557-12.559c6.927,0,12.555,5.629,12.555,12.559v17.316
			c0,6.93-5.628,12.557-12.555,12.557C1292.125,438.835,1286.497,433.208,1286.497,426.278z M1294.29,408.962v17.316
			c0,2.598,2.077,4.764,4.764,4.764c2.597,0,4.762-2.166,4.762-4.764v-17.316c0-2.6-2.165-4.764-4.762-4.764
			C1296.367,404.198,1294.29,406.362,1294.29,408.962z"/>
		<path d="M1317.615,426.278v-17.316c0-6.93,5.628-12.559,12.555-12.559c6.928,0,12.557,5.629,12.557,12.559v17.316
			c0,6.93-5.629,12.557-12.557,12.557C1323.243,438.835,1317.615,433.208,1317.615,426.278z M1325.408,408.962v17.316
			c0,2.598,2.078,4.764,4.762,4.764c2.598,0,4.764-2.166,4.764-4.764v-17.316c0-2.6-2.166-4.764-4.764-4.764
			C1327.486,404.198,1325.408,406.362,1325.408,408.962z"/>
		<path d="M1346.621,400.647c0-2.164,1.733-3.896,3.896-3.896h3.033v-11.949c0-2.166,1.731-3.896,3.896-3.896
			c2.163,0,3.896,1.73,3.896,3.896v11.949h4.76c2.167,0,3.896,1.732,3.896,3.896s-1.729,3.896-3.896,3.896h-4.76v21.735
			c0,2.598,2.163,4.764,4.76,4.764c2.167,0,3.896,1.73,3.896,3.896s-1.729,3.896-3.896,3.896c-6.925,0-12.553-5.627-12.553-12.557
			v-21.735h-3.033C1348.354,404.543,1346.621,402.812,1346.621,400.647z"/>
		<g display="none">
			<path display="inline" d="M1084.546,380.905c8.054,0,14.55,6.494,14.55,14.545v28.75c0,8.055-6.496,14.549-14.55,14.549h-10.39
				c-2.338,0-4.156-1.818-4.156-4.156v-49.531c0-2.252,1.818-4.156,4.156-4.156H1084.546z"/>
			<polygon display="inline" fill="#FFFFFF" points="1082.801,431.767 1076.984,431.767 1085.131,389.868 1090.948,389.868 			"/>
		</g>
	</g>
</g>
<text transform="matrix(1 0 0 1 30 2525.4258)" font-family="'HelveticaNeue-Thin'" font-size="18">Horizontal</text>
<text transform="matrix(1 0 0 1 850 2525.4258)" font-family="'HelveticaNeue-Thin'" font-size="18">Vertical</text>
<g>
	<g>
		<path d="M1074.191,2912.6c-2.321,0-4.191-1.87-4.191-4.126v-36.947c0-2.257,1.87-4.128,4.191-4.128h8.512
			c10.574,0,17.731,7.029,17.731,17.539v10.123c0,10.512-7.157,17.539-17.731,17.539H1074.191z M1093.6,2884.81
			c0-6.835-3.933-10.897-10.832-10.897h-5.933v32.177h5.933c6.899,0,10.832-4.128,10.832-10.898V2884.81z"/>
		<path d="M1133.639,2899.704c0,3.934-1.289,7.352-3.74,9.802c-2.45,2.449-5.867,3.739-9.801,3.739c-3.933,0-7.351-1.29-9.802-3.739
			c-2.45-2.45-3.739-5.868-3.739-9.802v-6.899c0-3.934,1.289-7.352,3.739-9.802c2.451-2.45,5.869-3.739,9.802-3.739
			c3.934,0,7.351,1.289,9.801,3.739c2.451,2.45,3.74,5.868,3.74,9.802V2899.704z M1126.997,2892.289c0-4.062-2.644-6.9-6.899-6.9
			c-4.385,0-6.899,2.516-6.899,6.9v7.995c0,4.321,2.515,6.835,6.899,6.835s6.899-2.514,6.899-6.835V2892.289z"/>
		<path d="M1139.438,2892.159c0-3.739,1.226-6.963,3.547-9.285c2.386-2.386,5.609-3.61,9.35-3.61c3.159,0,6.189,0.71,8.962,2.064
			c1.227,0.579,1.871,1.74,1.871,2.965c0,1.612-1.354,3.03-3.16,3.03c-0.58,0-1.096-0.192-1.547-0.387
			c-1.87-0.838-3.998-1.548-6.126-1.548c-3.934,0-6.255,2.321-6.255,6.256v9.155c0,3.998,2.321,6.256,6.255,6.256
			c2.128,0,4.448-0.711,6.319-1.612c0.451-0.259,0.902-0.322,1.419-0.322c1.611,0,3.095,1.289,3.095,3.094
			c0,1.227-0.71,2.386-1.935,2.967c-2.772,1.354-5.739,2.063-8.898,2.063c-3.74,0-6.964-1.226-9.35-3.611
			c-2.321-2.321-3.547-5.545-3.547-9.35V2892.159z"/>
		<path d="M1175.932,2898.737v11.155c0,1.869-1.483,3.353-3.289,3.353c-1.869,0-3.353-1.483-3.353-3.353v-39.785
			c0-1.869,1.483-3.353,3.353-3.353c1.806,0,3.289,1.483,3.289,3.353v20.697l11.478-10.639c0.644-0.645,1.482-0.902,2.321-0.902
			c1.74,0,3.224,1.483,3.224,3.353c0,0.903-0.387,1.741-1.097,2.386l-11.025,9.802l11.735,12.895c0.58,0.581,0.773,1.42,0.773,2.194
			c0,1.675-1.354,3.353-3.224,3.353c-0.967,0-1.935-0.387-2.578-1.161L1175.932,2898.737z"/>
		<path d="M1204.042,2899.381c0,2.645,0.452,4.386,1.29,5.546c1.097,1.418,2.773,2.192,4.965,2.192c2.45,0,4.771-0.709,6.964-1.676
			c0.451-0.194,0.902-0.322,1.354-0.322c1.611,0,3.159,1.354,3.159,3.03c0,1.225-0.516,2.321-1.676,2.901
			c-3.095,1.483-6.384,2.192-9.802,2.192c-3.74,0-6.964-1.226-9.35-3.611c-2.322-2.321-3.546-5.545-3.546-9.35v-8.125
			c0-3.739,1.224-6.963,3.546-9.285c2.386-2.386,5.609-3.61,9.35-3.61c3.805,0,7.028,1.225,9.35,3.61
			c2.321,2.322,3.611,5.546,3.611,9.285v3.031c0,2.32-1.87,4.19-4.191,4.19H1204.042z M1216.616,2893.256
			c0-5.352-2.193-7.867-6.319-7.867c-4.062,0-6.255,2.45-6.255,7.867H1216.616z"/>
		<path d="M1230.219,2888.871c0-5.48,4.127-9.607,9.607-9.607c1.612,0,3.225,0.193,4.837,0.516c1.547,0.322,2.643,1.612,2.643,3.159
			c0,1.742-1.29,3.096-3.159,3.096c-0.387,0-0.58,0-1.096-0.129c-1.032-0.258-2.192-0.517-3.225-0.517
			c-1.611,0-2.966,1.354-2.966,2.967v21.537c0,1.869-1.483,3.353-3.289,3.353c-1.87,0-3.353-1.483-3.353-3.353V2888.871z"/>
		<path d="M1265.229,2893.643h-5.804v16.25c0,1.869-1.611,3.353-3.417,3.353c-1.871,0-3.418-1.483-3.418-3.353v-38.366
			c0-2.257,1.87-4.128,4.191-4.128h11.994c3.804,0,7.093,1.227,9.479,3.612c2.45,2.45,3.739,5.803,3.739,9.672
			c0,3.868-1.289,7.156-3.676,9.479c-1.547,1.483-3.416,2.45-5.608,3.029l8.962,15.024c0.322,0.516,0.516,1.161,0.516,1.742
			c0,1.676-1.548,3.288-3.354,3.288c-1.16,0-2.256-0.58-2.836-1.612L1265.229,2893.643z M1268.776,2887.131
			c2.966,0,6.382-1.226,6.382-6.448c0-3.869-2.256-6.771-6.382-6.771h-9.351v13.219H1268.776z"/>
		<path d="M1313.908,2899.704c0,3.934-1.29,7.352-3.74,9.802c-2.45,2.449-5.867,3.739-9.801,3.739s-7.35-1.29-9.801-3.739
			c-2.45-2.45-3.74-5.868-3.74-9.802v-6.899c0-3.934,1.29-7.352,3.74-9.802c2.451-2.45,5.867-3.739,9.801-3.739
			s7.351,1.289,9.801,3.739s3.74,5.868,3.74,9.802V2899.704z M1307.268,2892.289c0-4.062-2.645-6.9-6.9-6.9
			c-4.385,0-6.898,2.516-6.898,6.9v7.995c0,4.321,2.514,6.835,6.898,6.835s6.9-2.514,6.9-6.835V2892.289z"/>
		<path d="M1346.79,2899.704c0,3.934-1.29,7.352-3.739,9.802c-2.45,2.449-5.868,3.739-9.802,3.739s-7.35-1.29-9.801-3.739
			c-2.45-2.45-3.74-5.868-3.74-9.802v-6.899c0-3.934,1.29-7.352,3.74-9.802c2.451-2.45,5.867-3.739,9.801-3.739
			s7.352,1.289,9.802,3.739c2.449,2.45,3.739,5.868,3.739,9.802V2899.704z M1340.149,2892.289c0-4.062-2.644-6.9-6.9-6.9
			c-4.385,0-6.898,2.516-6.898,6.9v7.995c0,4.321,2.514,6.835,6.898,6.835s6.9-2.514,6.9-6.835V2892.289z"/>
		<path d="M1353.751,2870.107c0-1.869,1.483-3.353,3.353-3.353c1.806,0,3.289,1.483,3.289,3.353v9.801h6.255
			c1.869,0,3.353,1.354,3.353,3.16c0,1.934-1.418,3.224-3.353,3.224h-6.255v16.829c0,2.451,1.29,3.998,2.967,3.998
			c1.869,0,2.192-0.517,3.417-0.517c1.612,0,3.224,1.161,3.224,3.095c0,1.613-1.225,2.839-2.837,3.161
			c-1.29,0.257-2.515,0.387-3.804,0.387c-5.288,0-9.608-4.127-9.608-10.059V2870.107z"/>
	</g>
	<g>
		<path d="M1364,2646.755h-288c-3.312,0-6,2.688-6,6v188c0,3.312,2.688,6,6,6h288c3.312,0,6-2.688,6-6v-188
			C1370,2649.442,1367.312,2646.755,1364,2646.755z M1278,2815.253c0,3.702-2.381,6.875-5.818,8.064
			c-6.61,2.247-13.615,3.438-20.755,3.438c-7.668,0-14.277-2.512-19.17-7.404c-4.759-4.758-7.271-11.368-7.271-19.168v-16.658
			c0-7.667,2.38-14.409,7.14-19.168c4.892-4.892,11.633-7.271,19.301-7.271c4.495,0,9.386,1.585,12.956,3.437
			c0-8.594,0-22.209,0-22.209c0-3.834,2.908-6.875,6.741-6.875c3.835,0,6.876,3.041,6.876,6.875V2815.253z M1349.156,2740.165
			l-48.176,83.438c-1.166,2.023-3.285,3.152-5.461,3.152c-1.07,0-2.152-0.273-3.145-0.844c-3.012-1.742-4.045-5.594-2.305-8.609
			l48.172-83.438c1.742-3.012,5.596-4.045,8.607-2.305C1349.863,2733.298,1350.895,2737.151,1349.156,2740.165z"/>
		<path d="M1238.604,2782.468v18.904c0,8.197,4.759,12.823,12.823,12.823c4.495,0,8.857-0.528,12.956-1.718v-38.074
			c-3.57-3.041-8.197-4.76-12.956-4.76C1243.362,2769.644,1238.604,2774.403,1238.604,2782.468z"/>
	</g>
</g>
<g>
	<g>
		<path d="M266.819,2809.167c-2.996,0-5.409-2.413-5.409-5.325v-47.684c0-2.913,2.413-5.327,5.409-5.327h10.985
			c13.648,0,22.885,9.071,22.885,22.636v13.064c0,13.566-9.237,22.636-22.885,22.636H266.819z M291.868,2773.301
			c0-8.821-5.076-14.064-13.98-14.064h-7.656v41.527h7.656c8.904,0,13.98-5.327,13.98-14.065V2773.301z"/>
		<path d="M343.542,2792.524c0,5.076-1.664,9.487-4.827,12.649c-3.162,3.161-7.573,4.826-12.649,4.826
			c-5.077,0-9.487-1.665-12.65-4.826c-3.162-3.162-4.826-7.573-4.826-12.649v-8.905c0-5.076,1.664-9.487,4.826-12.649
			c3.163-3.162,7.573-4.826,12.65-4.826c5.076,0,9.487,1.664,12.649,4.826c3.163,3.162,4.827,7.573,4.827,12.649V2792.524z
			 M334.971,2782.954c0-5.243-3.413-8.905-8.904-8.905c-5.659,0-8.905,3.246-8.905,8.905v10.318c0,5.577,3.246,8.821,8.905,8.821
			c5.658,0,8.904-3.244,8.904-8.821V2782.954z"/>
		<path d="M351.028,2782.786c0-4.825,1.581-8.985,4.577-11.982c3.079-3.079,7.24-4.66,12.066-4.66c4.078,0,7.989,0.916,11.567,2.664
			c1.581,0.748,2.414,2.246,2.414,3.827c0,2.08-1.748,3.91-4.078,3.91c-0.75,0-1.415-0.248-1.998-0.498
			c-2.413-1.082-5.16-1.998-7.906-1.998c-5.077,0-8.072,2.996-8.072,8.073v11.816c0,5.159,2.996,8.073,8.072,8.073
			c2.746,0,5.742-0.917,8.156-2.081c0.582-0.333,1.165-0.416,1.831-0.416c2.081,0,3.995,1.664,3.995,3.993
			c0,1.583-0.916,3.079-2.497,3.829c-3.579,1.748-7.407,2.663-11.484,2.663c-4.827,0-8.988-1.581-12.066-4.661
			c-2.996-2.995-4.577-7.155-4.577-12.066V2782.786z"/>
		<path d="M398.125,2791.276v14.396c0,2.413-1.914,4.327-4.244,4.327c-2.413,0-4.327-1.914-4.327-4.327v-51.346
			c0-2.413,1.914-4.327,4.327-4.327c2.33,0,4.244,1.914,4.244,4.327v26.712l14.813-13.73c0.832-0.832,1.914-1.165,2.995-1.165
			c2.247,0,4.161,1.914,4.161,4.327c0,1.165-0.499,2.247-1.415,3.079l-14.23,12.649l15.146,16.643
			c0.749,0.75,0.999,1.832,0.999,2.831c0,2.162-1.748,4.327-4.161,4.327c-1.248,0-2.497-0.499-3.328-1.499L398.125,2791.276z"/>
		<path d="M434.405,2792.107c0,3.412,0.583,5.659,1.665,7.157c1.415,1.83,3.579,2.829,6.408,2.829c3.162,0,6.158-0.915,8.987-2.163
			c0.583-0.25,1.165-0.416,1.748-0.416c2.081,0,4.078,1.747,4.078,3.911c0,1.581-0.666,2.996-2.164,3.745
			c-3.994,1.914-8.238,2.829-12.649,2.829c-4.827,0-8.988-1.581-12.067-4.661c-2.996-2.995-4.577-7.155-4.577-12.066v-10.486
			c0-4.825,1.581-8.985,4.577-11.982c3.079-3.079,7.24-4.66,12.067-4.66c4.91,0,9.07,1.581,12.066,4.66
			c2.996,2.997,4.66,7.157,4.66,11.982v3.912c0,2.995-2.414,5.409-5.409,5.409H434.405z M450.633,2784.202
			c0-6.907-2.83-10.153-8.155-10.153c-5.243,0-8.073,3.162-8.073,10.153H450.633z"/>
		<path d="M468.188,2778.543c0-7.073,5.326-12.399,12.399-12.399c2.081,0,4.161,0.25,6.242,0.666
			c1.997,0.415,3.412,2.08,3.412,4.077c0,2.248-1.665,3.995-4.078,3.995c-0.5,0-0.749,0-1.415-0.167
			c-1.332-0.332-2.83-0.666-4.161-0.666c-2.08,0-3.828,1.748-3.828,3.828v27.796c0,2.413-1.914,4.327-4.244,4.327
			c-2.414,0-4.327-1.914-4.327-4.327V2778.543z"/>
		<path d="M513.373,2784.701h-7.49v20.972c0,2.413-2.08,4.327-4.411,4.327c-2.413,0-4.411-1.914-4.411-4.327v-49.515
			c0-2.913,2.414-5.327,5.41-5.327h15.479c4.91,0,9.154,1.582,12.233,4.661c3.162,3.162,4.826,7.489,4.826,12.482
			s-1.664,9.236-4.744,12.233c-1.997,1.914-4.409,3.162-7.239,3.91l11.567,19.39c0.415,0.666,0.666,1.499,0.666,2.249
			c0,2.162-1.998,4.243-4.328,4.243c-1.498,0-2.912-0.749-3.661-2.081L513.373,2784.701z M517.95,2776.297
			c3.828,0,8.238-1.582,8.238-8.322c0-4.993-2.912-8.738-8.238-8.738h-12.067v17.061H517.95z"/>
		<path d="M576.197,2792.524c0,5.076-1.664,9.487-4.826,12.649c-3.163,3.161-7.573,4.826-12.65,4.826
			c-5.076,0-9.486-1.665-12.648-4.826c-3.162-3.162-4.827-7.573-4.827-12.649v-8.905c0-5.076,1.665-9.487,4.827-12.649
			c3.163-3.162,7.572-4.826,12.648-4.826c5.077,0,9.487,1.664,12.65,4.826c3.162,3.162,4.826,7.573,4.826,12.649V2792.524z
			 M567.627,2782.954c0-5.243-3.412-8.905-8.905-8.905c-5.659,0-8.903,3.246-8.903,8.905v10.318c0,5.577,3.245,8.821,8.903,8.821
			c5.659,0,8.905-3.244,8.905-8.821V2782.954z"/>
		<path d="M618.635,2792.524c0,5.076-1.664,9.487-4.826,12.649c-3.163,3.161-7.573,4.826-12.65,4.826s-9.486-1.665-12.648-4.826
			c-3.162-3.162-4.827-7.573-4.827-12.649v-8.905c0-5.076,1.665-9.487,4.827-12.649c3.163-3.162,7.572-4.826,12.648-4.826
			s9.487,1.664,12.65,4.826c3.162,3.162,4.826,7.573,4.826,12.649V2792.524z M610.064,2782.954c0-5.243-3.412-8.905-8.905-8.905
			c-5.659,0-8.904,3.246-8.904,8.905v10.318c0,5.577,3.245,8.821,8.904,8.821c5.659,0,8.905-3.244,8.905-8.821V2782.954z"/>
		<path d="M627.619,2754.327c0-2.413,1.915-4.327,4.327-4.327c2.331,0,4.245,1.914,4.245,4.327v12.648h8.072
			c2.413,0,4.327,1.748,4.327,4.078c0,2.496-1.831,4.161-4.327,4.161h-8.072v21.72c0,3.163,1.665,5.159,3.829,5.159
			c2.413,0,2.83-0.666,4.411-0.666c2.08,0,4.16,1.498,4.16,3.994c0,2.082-1.581,3.663-3.661,4.079
			c-1.665,0.332-3.246,0.499-4.91,0.499c-6.825,0-12.4-5.326-12.4-12.981V2754.327z"/>
	</g>
	<g>
		<path d="M239.61,2750h-86.4c-0.994,0-1.8,0.807-1.8,1.8v56.4c0,0.993,0.806,1.8,1.8,1.8h86.4c0.994,0,1.8-0.807,1.8-1.8v-56.4
			C241.41,2750.807,240.604,2750,239.61,2750z M213.81,2800.55c0,1.11-0.714,2.062-1.746,2.419
			c-1.983,0.674-4.084,1.031-6.226,1.031c-2.301,0-4.283-0.754-5.751-2.222c-1.428-1.427-2.181-3.41-2.181-5.75v-4.997
			c0-2.301,0.714-4.323,2.142-5.751c1.468-1.468,3.49-2.181,5.791-2.181c1.348,0,2.815,0.476,3.887,1.03c0-2.578,0-6.662,0-6.662
			c0-1.15,0.873-2.062,2.022-2.062c1.15,0,2.062,0.912,2.062,2.062V2800.55z M235.157,2778.023l-14.453,25.031
			c-0.35,0.606-0.985,0.945-1.638,0.945c-0.321,0-0.646-0.082-0.943-0.253c-0.903-0.522-1.213-1.679-0.691-2.583l14.452-25.031
			c0.522-0.903,1.679-1.214,2.582-0.691C235.369,2775.963,235.679,2777.119,235.157,2778.023z"/>
		<path d="M201.991,2790.714v5.671c0,2.46,1.428,3.848,3.847,3.848c1.348,0,2.657-0.159,3.887-0.516v-11.422
			c-1.071-0.913-2.459-1.429-3.887-1.429C203.419,2786.866,201.991,2788.295,201.991,2790.714z"/>
	</g>
</g>
</svg>
