<?xml version="1.0" encoding="utf-8"?>
<!-- Generator: Adobe Illustrator 16.0.4, SVG Export Plug-In . SVG Version: 6.00 Build 0)  -->
<!DOCTYPE svg PUBLIC "-//W3C//DTD SVG 1.1//EN" "http://www.w3.org/Graphics/SVG/1.1/DTD/svg11.dtd">
<svg version="1.1" id="レイヤー_1" xmlns="http://www.w3.org/2000/svg" xmlns:xlink="http://www.w3.org/1999/xlink" x="0px"
	 y="0px" width="1620px" height="1220px" viewBox="0 0 1620 1220" enable-background="new 0 0 1620 1220" xml:space="preserve">
<g>
	<path d="M216.952,260c10.5,0,18.999,8.499,18.999,19.001v41.496c0,10.503-8.499,19.001-18.999,19.001h-15.001
		c-2.249,0-4-1.75-4-3.998V264c0-2.249,1.751-4,4-4H216.952z M216.952,268h-11.001v63.499h11.001
		c6.124,0,10.999-4.873,10.999-11.001v-41.496C227.951,273,223.076,268,216.952,268z"/>
	<path d="M245.532,323.499v-24.998c0-9.002,7.252-16.251,16.252-16.251c8.875,0,16.25,7.249,16.25,16.251v24.998
		c0,9.002-7.375,16.251-16.25,16.251C252.784,339.75,245.532,332.501,245.532,323.499z M253.034,298.501v24.998
		c0,4.877,3.876,8.751,8.75,8.751c4.751,0,8.751-3.874,8.751-8.751v-24.998c0-4.876-4-8.752-8.751-8.752
		C256.91,289.749,253.034,293.625,253.034,298.501z"/>
	<path d="M287.842,323.499v-24.998c0-6.626,3.877-12.501,10.002-15.001c6.123-2.5,13-1.126,17.749,3.499
		c1.376,1.5,1.376,3.876,0,5.376c-1.501,1.374-3.874,1.374-5.374,0c-2.5-2.626-6.252-3.251-9.5-2.001
		c-3.252,1.376-5.375,4.625-5.375,8.127v24.998c0,3.501,2.123,6.75,5.375,8.126c3.248,1.374,7,0.625,9.5-1.878
		c1.5-1.5,3.873-1.5,5.374,0c1.376,1.376,1.376,3.753,0,5.253c-4.749,4.625-11.626,6-17.749,3.503
		C291.719,336,287.842,330.125,287.842,323.499z"/>
	<path d="M360.549,334.248c1,1.752,0.375,4-1.5,5c-1.75,1.002-4.123,0.377-5.122-1.373l-14.378-26.374l-5.997,6.624V336
		c0,2.125-1.753,3.75-3.753,3.75c-2.125,0-3.75-1.625-3.75-3.75v-72.25c0-2.126,1.625-3.75,3.75-3.75c2,0,3.753,1.624,3.753,3.75
		v43.125l20.872-23.375c1.375-1.5,3.75-1.625,5.375-0.251c1.5,1.377,1.627,3.75,0.25,5.25l-15.25,17L360.549,334.248z"/>
	<path d="M367.756,323.499v-24.998c0-9.002,7.252-16.251,16.252-16.251c8.999,0,16.247,7.249,16.247,16.251V311
		c0,2.122-1.625,3.752-3.75,3.752h-21.247v8.747c0,3.501,2.122,6.75,5.374,8.126c3.248,1.374,7.001,0.625,9.501-1.878
		c1.5-1.5,3.872-1.5,5.374,0c1.5,1.376,1.5,3.753,0,5.253c-4.627,4.625-11.627,6-17.749,3.503
		C371.633,336,367.756,330.125,367.756,323.499z M375.258,298.501v8.749c5,0,13.749,0,17.497,0c0-3.625,0-8.749,0-8.749
		c0-4.876-3.872-8.752-8.747-8.752C379.132,289.749,375.258,293.625,375.258,298.501z"/>
	<path d="M410.302,336v-49.5c0-2.125,1.625-3.749,3.75-3.749h12.503c2.872,0,5.624,0.749,8.122,2.123
		c1.753,1.126,2.378,3.375,1.375,5.126c-1,1.875-3.372,2.5-5.123,1.376c-1.377-0.751-2.874-1.126-4.374-1.126h-8.75V336
		c0,2.125-1.628,3.75-3.753,3.75S410.302,338.125,410.302,336z"/>
	<path d="M470.739,303.625l11.498,31c0.75,2-0.25,4.375-2.375,5.125c-1.998,0.75-4.375-0.252-5.125-2.375l-11.998-32.374h-10.252
		V336c0,2.248-1.75,4-4,4c-2.125,0-4-1.752-4-4v-72c0-2.249,1.875-4,4-4h15c10.5,0,19,8.499,19,19.001V286
		C482.486,294,477.611,300.75,470.739,303.625z M474.486,286v-6.999c0-6.001-4.875-11.001-11-11.001h-11v29h11
		C469.611,297,474.486,292.125,474.486,286z"/>
	<path d="M490.632,323.499v-24.998c0-9.002,7.248-16.251,16.251-16.251c8.875,0,16.252,7.249,16.252,16.251v24.998
		c0,9.002-7.377,16.251-16.252,16.251C497.88,339.75,490.632,332.501,490.632,323.499z M498.13,298.501v24.998
		c0,4.877,3.877,8.751,8.753,8.751c4.752,0,8.749-3.874,8.749-8.751v-24.998c0-4.876-3.997-8.752-8.749-8.752
		C502.007,289.749,498.13,293.625,498.13,298.501z"/>
	<path d="M532.939,323.499v-24.998c0-9.002,7.25-16.251,16.249-16.251c8.876,0,16.248,7.249,16.248,16.251v24.998
		c0,9.002-7.372,16.251-16.248,16.251C540.189,339.75,532.939,332.501,532.939,323.499z M540.441,298.501v24.998
		c0,4.877,3.873,8.751,8.747,8.751c4.751,0,8.751-3.874,8.751-8.751v-24.998c0-4.876-4-8.752-8.751-8.752
		C544.314,289.749,540.441,293.625,540.441,298.501z"/>
	<path d="M572.049,286.5c0-2.125,1.624-3.749,3.749-3.749h6.251V263.75c0-2.126,1.625-3.75,3.75-3.75
		c2.122,0,3.752,1.624,3.752,3.75v19.001h8.747c2.125,0,3.751,1.624,3.751,3.749c0,2.126-1.626,3.75-3.751,3.75h-8.747v33.249
		c0,4.877,3.873,8.751,8.747,8.751c2.125,0,3.751,1.625,3.751,3.75s-1.626,3.75-3.751,3.75c-9,0-16.249-7.249-16.249-16.251V290.25
		h-6.251C573.673,290.25,572.049,288.626,572.049,286.5z"/>
</g>
<g>
	<g>
		<path d="M313.714,890c7.875,0,14.249,6.373,14.249,14.251v31.122c0,7.877-6.374,14.25-14.249,14.25h-11.251
			c-1.686,0-3-1.312-3-2.998V893c0-1.687,1.314-3,3-3H313.714z M313.714,896h-8.251v47.623h8.251c4.592,0,8.249-3.653,8.249-8.25
			v-31.122C321.963,899.75,318.307,896,313.714,896z"/>
		<path d="M335.149,937.623v-18.747c0-6.753,5.439-12.188,12.189-12.188c6.656,0,12.188,5.436,12.188,12.188v18.747
			c0,6.753-5.531,12.189-12.188,12.189C340.588,949.812,335.149,944.376,335.149,937.623z M340.775,918.876v18.747
			c0,3.659,2.908,6.564,6.562,6.564c3.564,0,6.564-2.905,6.564-6.564v-18.747c0-3.657-3-6.565-6.564-6.565
			C343.683,912.311,340.775,915.219,340.775,918.876z"/>
		<path d="M366.881,937.623v-18.747c0-4.97,2.908-9.376,7.502-11.251c4.592-1.875,9.75-0.846,13.311,2.623
			c1.033,1.125,1.033,2.908,0,4.033c-1.125,1.029-2.905,1.029-4.03,0c-1.875-1.971-4.689-2.439-7.125-1.502
			c-2.439,1.033-4.031,3.469-4.031,6.097v18.747c0,2.627,1.592,5.062,4.031,6.096c2.436,1.029,5.25,0.469,7.125-1.408
			c1.125-1.125,2.904-1.125,4.03,0c1.033,1.031,1.033,2.814,0,3.939c-3.561,3.469-8.719,4.5-13.311,2.627
			C369.79,947,366.881,942.594,366.881,937.623z"/>
		<path d="M421.412,945.686c0.75,1.314,0.281,3-1.125,3.75c-1.312,0.752-3.092,0.283-3.841-1.029l-10.784-19.78l-4.498,4.968V947
			c0,1.594-1.315,2.812-2.815,2.812c-1.594,0-2.812-1.219-2.812-2.812v-54.188c0-1.596,1.219-2.812,2.812-2.812
			c1.5,0,2.815,1.217,2.815,2.812v32.344l15.654-17.531c1.031-1.125,2.812-1.219,4.031-0.189c1.125,1.034,1.22,2.812,0.188,3.938
			l-11.438,12.75L421.412,945.686z"/>
		<path d="M426.817,937.623v-18.747c0-6.753,5.44-12.188,12.19-12.188c6.749,0,12.185,5.436,12.185,12.188v9.374
			c0,1.592-1.219,2.814-2.812,2.814h-15.935v6.559c0,2.627,1.591,5.062,4.03,6.096c2.436,1.029,5.251,0.469,7.126-1.408
			c1.125-1.125,2.903-1.125,4.03,0c1.125,1.031,1.125,2.814,0,3.939c-3.47,3.469-8.72,4.5-13.311,2.627
			C429.726,947,426.817,942.594,426.817,937.623z M432.444,918.876v6.562c3.75,0,10.311,0,13.122,0c0-2.719,0-6.562,0-6.562
			c0-3.657-2.903-6.565-6.56-6.565C435.349,912.311,432.444,915.219,432.444,918.876z"/>
		<path d="M458.727,947v-37.125c0-1.594,1.219-2.812,2.812-2.812h9.378c2.153,0,4.217,0.562,6.091,1.591
			c1.315,0.846,1.784,2.531,1.031,3.846c-0.75,1.406-2.528,1.875-3.842,1.032c-1.033-0.563-2.155-0.845-3.28-0.845h-6.562V947
			c0,1.594-1.222,2.812-2.815,2.812S458.727,948.594,458.727,947z"/>
		<path d="M504.054,922.719l8.624,23.25c0.562,1.5-0.188,3.281-1.781,3.844c-1.499,0.562-3.281-0.189-3.844-1.781l-8.999-24.28
			h-7.688V947c0,1.686-1.312,3-3,3c-1.594,0-3-1.314-3-3v-54c0-1.687,1.406-3,3-3h11.25c7.875,0,14.25,6.373,14.25,14.251v5.249
			C512.865,915.5,509.209,920.562,504.054,922.719z M506.865,909.5v-5.249c0-4.501-3.656-8.251-8.25-8.251h-8.25v21.75h8.25
			C503.209,917.75,506.865,914.094,506.865,909.5z"/>
		<path d="M518.974,937.623v-18.747c0-6.753,5.436-12.188,12.189-12.188c6.656,0,12.188,5.436,12.188,12.188v18.747
			c0,6.753-5.532,12.189-12.188,12.189C524.41,949.812,518.974,944.376,518.974,937.623z M524.598,918.876v18.747
			c0,3.659,2.908,6.564,6.565,6.564c3.563,0,6.561-2.905,6.561-6.564v-18.747c0-3.657-2.998-6.565-6.561-6.565
			C527.505,912.311,524.598,915.219,524.598,918.876z"/>
		<path d="M550.705,937.623v-18.747c0-6.753,5.438-12.188,12.187-12.188c6.657,0,12.186,5.436,12.186,12.188v18.747
			c0,6.753-5.529,12.189-12.186,12.189C556.143,949.812,550.705,944.376,550.705,937.623z M556.331,918.876v18.747
			c0,3.659,2.905,6.564,6.561,6.564c3.563,0,6.563-2.905,6.563-6.564v-18.747c0-3.657-3-6.565-6.563-6.565
			C559.236,912.311,556.331,915.219,556.331,918.876z"/>
		<path d="M580.037,909.875c0-1.594,1.218-2.812,2.812-2.812h4.688v-14.251c0-1.596,1.219-2.812,2.812-2.812
			c1.591,0,2.813,1.217,2.813,2.812v14.251h6.561c1.594,0,2.813,1.218,2.813,2.812c0,1.595-1.22,2.812-2.813,2.812h-6.561v24.936
			c0,3.659,2.905,6.564,6.561,6.564c1.594,0,2.813,1.219,2.813,2.812s-1.22,2.812-2.813,2.812c-6.75,0-12.187-5.437-12.187-12.189
			v-24.936h-4.688C581.255,912.688,580.037,911.47,580.037,909.875z"/>
	</g>
	<g>
		<path d="M287.463,891.801c0-0.994-0.806-1.801-1.8-1.801h-86.4c-0.994,0-1.8,0.807-1.8,1.801v56.398
			c0,0.994,0.806,1.801,1.8,1.801h86.4c0.994,0,1.8-0.807,1.8-1.801V891.801z M259.863,942.326c0,1.051-1.062,1.674-2.112,1.674
			h-4.2c-3.36,0-6.288-2.514-6.288-5.873v-8.064c0-3.359,2.928-5.863,6.288-5.863h2.112v-6.904c0-1.049,1.05-1.891,2.1-1.891
			c1.05,0,2.1,0.842,2.1,1.891V942.326z M281.209,918.023l-14.452,25.031c-0.35,0.607-0.985,0.945-1.638,0.945
			c-0.321,0-0.646-0.082-0.943-0.254c-0.904-0.521-1.214-1.678-0.692-2.582l14.452-25.031c0.522-0.904,1.678-1.214,2.582-0.691
			C281.422,915.963,281.731,917.119,281.209,918.023z"/>
		<path d="M251.463,930.062v8.064c0,1.26,0.828,2.273,2.088,2.273h2.112v-12.6h-2.112
			C252.291,927.801,251.463,928.803,251.463,930.062z"/>
	</g>
</g>
<g>
	<path d="M1370,206c0-3.312-2.688-6-6-6h-288c-3.312,0-6,2.688-6,6v188c0,3.312,2.688,6,6,6h288c3.312,0,6-2.688,6-6V206z
		 M1278,374.422c0,3.5-3.539,5.578-7.039,5.578h-14c-11.201,0-20.961-8.379-20.961-19.578v-26.879
		c0-11.199,9.76-19.543,20.961-19.543H1264v-23.016c0-3.5,3.5-6.301,7-6.301s7,2.801,7,6.301V374.422z M1349.156,293.41
		l-48.176,83.438c-1.166,2.023-3.285,3.152-5.461,3.152c-1.07,0-2.152-0.273-3.145-0.844c-3.012-1.742-4.045-5.594-2.305-8.609
		l48.172-83.438c1.742-3.012,5.596-4.045,8.607-2.305C1349.863,286.543,1350.895,290.396,1349.156,293.41z"/>
	<path d="M1250,333.543v26.879c0,4.199,2.76,7.578,6.961,7.578H1264v-42h-7.039C1252.76,326,1250,329.344,1250,333.543z"/>
</g>
<g>
	<g>
		<path d="M1084.106,1000.305c7.795,0,14.104,6.309,14.104,14.105v30.807c0,7.798-6.31,14.106-14.104,14.106h-11.137
			c-1.67,0-2.97-1.3-2.97-2.968v-53.082c0-1.669,1.3-2.969,2.97-2.969H1084.106z M1084.106,1006.243h-8.167v47.141h8.167
			c4.546,0,8.165-3.617,8.165-8.167v-30.807C1092.271,1009.955,1088.652,1006.243,1084.106,1006.243z"/>
		<path d="M1105.323,1047.445v-18.559c0-6.684,5.384-12.064,12.065-12.064c6.589,0,12.063,5.381,12.063,12.064v18.559
			c0,6.684-5.475,12.064-12.063,12.064C1110.707,1059.51,1105.323,1054.129,1105.323,1047.445z M1110.893,1028.887v18.559
			c0,3.621,2.878,6.497,6.496,6.497c3.527,0,6.497-2.876,6.497-6.497v-18.559c0-3.619-2.97-6.498-6.497-6.498
			C1113.771,1022.389,1110.893,1025.268,1110.893,1028.887z"/>
		<path d="M1136.734,1047.445v-18.559c0-4.919,2.878-9.28,7.426-11.137c4.545-1.855,9.65-0.836,13.177,2.598
			c1.021,1.113,1.021,2.878,0,3.991c-1.114,1.02-2.876,1.02-3.99,0c-1.855-1.95-4.642-2.414-7.052-1.486
			c-2.416,1.022-3.992,3.434-3.992,6.034v18.559c0,2.6,1.576,5.011,3.992,6.033c2.41,1.02,5.196,0.464,7.052-1.395
			c1.114-1.113,2.876-1.113,3.99,0c1.021,1.021,1.021,2.786,0,3.899c-3.526,3.434-8.632,4.455-13.177,2.601
			C1139.612,1056.727,1136.734,1052.364,1136.734,1047.445z"/>
		<path d="M1190.712,1055.426c0.742,1.301,0.278,2.97-1.114,3.712c-1.299,0.743-3.061,0.279-3.802-1.02l-10.675-19.58l-4.451,4.918
			v13.271c0,1.577-1.302,2.783-2.787,2.783c-1.577,0-2.784-1.206-2.784-2.783v-53.639c0-1.579,1.207-2.783,2.784-2.783
			c1.485,0,2.787,1.204,2.787,2.783v32.016l15.494-17.354c1.021-1.113,2.784-1.206,3.991-0.187c1.113,1.022,1.207,2.784,0.186,3.897
			l-11.322,12.621L1190.712,1055.426z"/>
		<path d="M1196.062,1047.445v-18.559c0-6.684,5.384-12.064,12.065-12.064c6.681,0,12.062,5.381,12.062,12.064v9.279
			c0,1.576-1.206,2.786-2.783,2.786h-15.774v6.493c0,2.6,1.576,5.011,3.99,6.033c2.411,1.02,5.196,0.464,7.053-1.395
			c1.113-1.113,2.875-1.113,3.99,0c1.113,1.021,1.113,2.786,0,3.899c-3.435,3.434-8.632,4.455-13.178,2.601
			C1198.94,1056.727,1196.062,1052.364,1196.062,1047.445z M1201.632,1028.887v6.496c3.712,0,10.208,0,12.99,0
			c0-2.691,0-6.496,0-6.496c0-3.619-2.875-6.498-6.494-6.498C1204.508,1022.389,1201.632,1025.268,1201.632,1028.887z"/>
		<path d="M1227.648,1056.727v-36.749c0-1.577,1.207-2.783,2.784-2.783h9.281c2.133,0,4.176,0.556,6.03,1.575
			c1.301,0.837,1.765,2.506,1.021,3.807c-0.742,1.392-2.504,1.855-3.804,1.021c-1.022-0.558-2.134-0.836-3.248-0.836h-6.496v33.965
			c0,1.577-1.207,2.783-2.785,2.783C1228.855,1059.51,1227.648,1058.304,1227.648,1056.727z"/>
		<path d="M1272.516,1032.691l8.536,23.014c0.557,1.485-0.186,3.248-1.763,3.805c-1.483,0.558-3.248-0.187-3.806-1.763
			l-8.907-24.034h-7.61v23.014c0,1.669-1.3,2.969-2.97,2.969c-1.578,0-2.97-1.3-2.97-2.969v-53.453c0-1.669,1.392-2.969,2.97-2.969
			h11.136c7.795,0,14.105,6.309,14.105,14.105v5.196C1281.237,1025.546,1277.618,1030.557,1272.516,1032.691z M1275.298,1019.606
			v-5.196c0-4.455-3.619-8.167-8.166-8.167h-8.166v21.529h8.166C1271.679,1027.772,1275.298,1024.153,1275.298,1019.606z"/>
		<path d="M1287.285,1047.445v-18.559c0-6.684,5.381-12.064,12.063-12.064c6.59,0,12.066,5.381,12.066,12.064v18.559
			c0,6.684-5.477,12.064-12.066,12.064C1292.666,1059.51,1287.285,1054.129,1287.285,1047.445z M1292.852,1028.887v18.559
			c0,3.621,2.879,6.497,6.497,6.497c3.528,0,6.497-2.876,6.497-6.497v-18.559c0-3.619-2.969-6.498-6.497-6.498
			C1295.73,1022.389,1292.852,1025.268,1292.852,1028.887z"/>
		<path d="M1318.693,1047.445v-18.559c0-6.684,5.383-12.064,12.063-12.064c6.589,0,12.062,5.381,12.062,12.064v18.559
			c0,6.684-5.474,12.064-12.062,12.064C1324.076,1059.51,1318.693,1054.129,1318.693,1047.445z M1324.263,1028.887v18.559
			c0,3.621,2.876,6.497,6.494,6.497c3.527,0,6.497-2.876,6.497-6.497v-18.559c0-3.619-2.97-6.498-6.497-6.498
			C1327.139,1022.389,1324.263,1025.268,1324.263,1028.887z"/>
		<path d="M1347.729,1019.978c0-1.577,1.205-2.783,2.783-2.783h4.641v-14.106c0-1.579,1.206-2.783,2.784-2.783
			c1.575,0,2.785,1.204,2.785,2.783v14.106h6.493c1.578,0,2.785,1.206,2.785,2.783c0,1.578-1.207,2.784-2.785,2.784h-6.493v24.684
			c0,3.621,2.875,6.497,6.493,6.497c1.578,0,2.785,1.206,2.785,2.784c0,1.577-1.207,2.783-2.785,2.783
			c-6.681,0-12.062-5.381-12.062-12.064v-24.684h-4.641C1348.934,1022.762,1347.729,1021.556,1347.729,1019.978z"/>
	</g>
	<g>
		<path d="M1370,786.305c0-3.312-2.688-6-6-6h-288c-3.312,0-6,2.688-6,6v188c0,3.312,2.688,6,6,6h288c3.312,0,6-2.688,6-6V786.305z
			 M1278,954.727c0,3.5-3.539,5.578-7.039,5.578h-14c-11.201,0-20.961-8.379-20.961-19.578v-26.879
			c0-11.199,9.76-19.543,20.961-19.543H1264v-23.016c0-3.5,3.5-6.301,7-6.301s7,2.801,7,6.301V954.727z M1349.156,873.715
			l-48.176,83.438c-1.166,2.023-3.285,3.152-5.461,3.152c-1.07,0-2.152-0.273-3.145-0.844c-3.012-1.742-4.045-5.594-2.305-8.609
			l48.172-83.438c1.742-3.012,5.596-4.045,8.607-2.305C1349.863,866.848,1350.895,870.701,1349.156,873.715z"/>
		<path d="M1250,913.848v26.879c0,4.199,2.76,7.578,6.961,7.578H1264v-42h-7.039C1252.76,906.305,1250,909.648,1250,913.848z"/>
	</g>
</g>
<text transform="matrix(1 0 0 1 30 45.4258)" font-family="'HelveticaNeue-Thin'" font-size="18">Logo</text>
<text transform="matrix(1 0 0 1 850 45.4258)" font-family="'HelveticaNeue-Thin'" font-size="18">Icon</text>
<text transform="matrix(1 0 0 1 30 665.4258)" font-family="'HelveticaNeue-Thin'" font-size="18">Horizontal</text>
<text transform="matrix(1 0 0 1 850 665.4258)" font-family="'HelveticaNeue-Thin'" font-size="18">Vertical</text>
</svg>
